STARTFONT 2.1
COMMENT
COMMENT Converted from OpenType font "BeVietnam-Bold.ttf" by "otf2bdf 3.0".
COMMENT
FONT -FreeType-Be Vietnam-Bold-R-Normal--22-160-100-100-P-111-ISO10646-1
SIZE 16 100 100
FONTBOUNDINGBOX 35 31 -10 -6
STARTPROPERTIES 19
FOUNDRY "FreeType"
FAMILY_NAME "Be Vietnam"
WEIGHT_NAME "Bold"
SLANT "R"
SETWIDTH_NAME "Normal"
ADD_STYLE_NAME ""
PIXEL_SIZE 22
POINT_SIZE 160
RESOLUTION_X 100
RESOLUTION_Y 100
SPACING "P"
AVERAGE_WIDTH 111
CHARSET_REGISTRY "ISO10646"
CHARSET_ENCODING "1"
FONT_ASCENT 26
FONT_DESCENT 5
COPYRIGHT "Copyright 2019 The Bevietnam Project Authors (https://github.com/bettergui/beVietnam)"
_OTF_FONTFILE "BeVietnam-Bold.ttf"
_OTF_PSNAME "BeVietnam-Bold"
ENDPROPERTIES
CHARS 445
STARTCHAR 000D
ENCODING 13
SWIDTH 585 0
DWIDTH 13 0
BBX 0 0 0 0
BITMAP
ENDCHAR
STARTCHAR 0020
ENCODING 32
SWIDTH 225 0
DWIDTH 5 0
BBX 0 0 0 0
BITMAP
ENDCHAR
STARTCHAR 0021
ENCODING 33
SWIDTH 270 0
DWIDTH 6 0
BBX 4 16 1 0
BITMAP
70
70
70
70
60
60
60
60
60
60
60
00
00
60
F0
60
ENDCHAR
STARTCHAR 0022
ENCODING 34
SWIDTH 495 0
DWIDTH 11 0
BBX 9 6 1 11
BITMAP
6180
4200
C200
F380
F380
7380
ENDCHAR
STARTCHAR 0023
ENCODING 35
SWIDTH 855 0
DWIDTH 19 0
BBX 16 16 2 0
BITMAP
031C
071C
0718
0618
7FFF
7FFF
7FFF
0E30
0C30
0C70
FFFE
FFFE
1860
18E0
38E0
38E0
ENDCHAR
STARTCHAR 0024
ENCODING 36
SWIDTH 585 0
DWIDTH 13 0
BBX 12 19 1 -2
BITMAP
0400
0400
3F80
7FC0
F5E0
E4E0
E4E0
F400
7F00
3FC0
07E0
04E0
E470
F4E0
7DE0
7FC0
1F80
0400
0400
ENDCHAR
STARTCHAR 0025
ENCODING 37
SWIDTH 765 0
DWIDTH 17 0
BBX 16 16 1 0
BITMAP
7018
F838
CC30
CC70
CC60
F8E0
31C0
01C0
0380
0300
071E
063F
0E33
0C33
1C3F
181E
ENDCHAR
STARTCHAR 0026
ENCODING 38
SWIDTH 630 0
DWIDTH 14 0
BBX 14 16 1 0
BITMAP
0F00
1FC0
3FE0
38E0
38E0
3800
3C00
1E70
3E70
7FE0
E3C0
E1C0
E1E0
F7F0
7F78
3E3C
ENDCHAR
STARTCHAR 0027
ENCODING 39
SWIDTH 270 0
DWIDTH 6 0
BBX 3 6 2 11
BITMAP
E0
E0
E0
20
20
40
ENDCHAR
STARTCHAR 0028
ENCODING 40
SWIDTH 450 0
DWIDTH 10 0
BBX 7 23 2 -5
BITMAP
06
0C
1C
18
38
30
70
70
70
E0
E0
E0
E0
E0
70
70
70
30
38
18
1C
0C
02
ENDCHAR
STARTCHAR 0029
ENCODING 41
SWIDTH 540 0
DWIDTH 12 0
BBX 6 23 4 -5
BITMAP
80
C0
60
70
30
38
38
18
1C
1C
1C
1C
1C
1C
1C
38
38
38
30
70
60
C0
80
ENDCHAR
STARTCHAR 002A
ENCODING 42
SWIDTH 495 0
DWIDTH 11 0
BBX 8 8 2 9
BITMAP
18
18
D6
7C
3C
F7
12
18
ENDCHAR
STARTCHAR 002B
ENCODING 43
SWIDTH 585 0
DWIDTH 13 0
BBX 9 10 2 2
BITMAP
1C00
1C00
1C00
1C00
FF80
FF80
1C00
1C00
1C00
1C00
ENDCHAR
STARTCHAR 002C
ENCODING 44
SWIDTH 315 0
DWIDTH 7 0
BBX 3 7 2 -4
BITMAP
E0
E0
E0
20
20
60
C0
ENDCHAR
STARTCHAR 002D
ENCODING 45
SWIDTH 585 0
DWIDTH 13 0
BBX 8 2 3 6
BITMAP
FF
FF
ENDCHAR
STARTCHAR 002E
ENCODING 46
SWIDTH 315 0
DWIDTH 7 0
BBX 3 3 2 0
BITMAP
E0
E0
E0
ENDCHAR
STARTCHAR 002F
ENCODING 47
SWIDTH 495 0
DWIDTH 11 0
BBX 10 22 1 -4
BITMAP
01C0
01C0
01C0
0380
0380
0380
0700
0700
0600
0E00
0E00
0C00
1C00
1C00
3800
3800
3800
7000
7000
7000
E000
E000
ENDCHAR
STARTCHAR 0030
ENCODING 48
SWIDTH 585 0
DWIDTH 13 0
BBX 12 16 1 0
BITMAP
0F00
3FC0
7FE0
70E0
F0F0
E0F0
E0F0
E0F0
E0F0
E0F0
E0F0
F0F0
F0E0
79E0
7FC0
1F80
ENDCHAR
STARTCHAR 0031
ENCODING 49
SWIDTH 495 0
DWIDTH 11 0
BBX 9 16 2 0
BITMAP
1C00
3C00
7C00
FC00
FC00
9C00
9C00
1C00
1C00
1C00
1C00
1C00
1C00
FF80
FF80
FF80
ENDCHAR
STARTCHAR 0032
ENCODING 50
SWIDTH 585 0
DWIDTH 13 0
BBX 11 16 1 0
BITMAP
1F00
3FC0
7FC0
71E0
E0E0
E0E0
00E0
01C0
03C0
0780
0F00
3C00
7800
FFE0
FFE0
FFE0
ENDCHAR
STARTCHAR 0033
ENCODING 51
SWIDTH 585 0
DWIDTH 13 0
BBX 11 16 1 0
BITMAP
1F00
3FC0
7FE0
F0E0
00E0
00E0
01C0
0F80
0FC0
01E0
00E0
00E0
E0E0
FFE0
7FC0
3F80
ENDCHAR
STARTCHAR 0034
ENCODING 52
SWIDTH 585 0
DWIDTH 13 0
BBX 12 16 1 0
BITMAP
03C0
07C0
07C0
0FC0
1DC0
1DC0
39C0
71C0
71C0
E1C0
FFF0
FFF0
01C0
01C0
01C0
01C0
ENDCHAR
STARTCHAR 0035
ENCODING 53
SWIDTH 585 0
DWIDTH 13 0
BBX 11 16 1 0
BITMAP
7FC0
7FC0
7FC0
6000
6000
E000
EF80
FFC0
F0E0
00E0
00E0
E0E0
F0E0
7FE0
3FC0
1F80
ENDCHAR
STARTCHAR 0036
ENCODING 54
SWIDTH 585 0
DWIDTH 13 0
BBX 11 16 1 0
BITMAP
0700
0E00
1C00
1C00
3800
3000
7F80
7FC0
F1E0
E0E0
E0E0
E0E0
E0E0
71E0
7FC0
1F80
ENDCHAR
STARTCHAR 0037
ENCODING 55
SWIDTH 495 0
DWIDTH 11 0
BBX 11 16 0 0
BITMAP
FFE0
FFE0
FFE0
00E0
00E0
01C0
01C0
0380
0380
0700
0700
0E00
0E00
1E00
1C00
3C00
ENDCHAR
STARTCHAR 0038
ENCODING 56
SWIDTH 585 0
DWIDTH 13 0
BBX 12 16 1 0
BITMAP
0F00
3FC0
7FE0
70E0
60E0
70E0
70E0
3FC0
3FC0
70E0
E0E0
E070
E0F0
F1E0
7FE0
3F80
ENDCHAR
STARTCHAR 0039
ENCODING 57
SWIDTH 585 0
DWIDTH 13 0
BBX 11 16 1 0
BITMAP
1F00
3F80
7FC0
F0E0
E0E0
E0E0
E0E0
F0E0
7FE0
3EC0
09C0
0380
0780
0700
0E00
1E00
ENDCHAR
STARTCHAR 003A
ENCODING 58
SWIDTH 315 0
DWIDTH 7 0
BBX 3 12 2 0
BITMAP
40
E0
E0
40
00
00
00
00
00
E0
E0
E0
ENDCHAR
STARTCHAR 003B
ENCODING 59
SWIDTH 315 0
DWIDTH 7 0
BBX 4 16 2 -4
BITMAP
60
F0
F0
60
00
00
00
00
00
60
F0
F0
30
10
20
40
ENDCHAR
STARTCHAR 003C
ENCODING 60
SWIDTH 540 0
DWIDTH 12 0
BBX 9 11 2 2
BITMAP
0080
0380
0F80
1F00
7C00
F000
F800
7E00
1F80
0780
0180
ENDCHAR
STARTCHAR 003D
ENCODING 61
SWIDTH 675 0
DWIDTH 15 0
BBX 10 7 3 3
BITMAP
FFC0
FFC0
0000
0000
FFC0
FFC0
FFC0
ENDCHAR
STARTCHAR 003E
ENCODING 62
SWIDTH 540 0
DWIDTH 12 0
BBX 9 11 2 2
BITMAP
8000
C000
F000
7C00
1F00
0780
0F80
3E00
F800
F000
C000
ENDCHAR
STARTCHAR 003F
ENCODING 63
SWIDTH 540 0
DWIDTH 12 0
BBX 11 16 1 0
BITMAP
1F00
3F80
7FC0
F1E0
E0E0
E0E0
01C0
03C0
0780
0F00
0E00
0E00
0000
0E00
0E00
0E00
ENDCHAR
STARTCHAR 0040
ENCODING 64
SWIDTH 990 0
DWIDTH 22 0
BBX 19 20 2 -4
BITMAP
01F000
0FFC00
1F1F00
380380
7001C0
E1D8C0
C3F8E0
C738E0
C61860
CE1860
CE1860
C618E0
C73CC0
E3EF80
608000
700000
3C0000
1FFC00
0FFC00
01FC00
ENDCHAR
STARTCHAR 0041
ENCODING 65
SWIDTH 675 0
DWIDTH 15 0
BBX 13 16 1 0
BITMAP
0700
0700
0F80
0F80
0D80
1DC0
1DC0
18E0
38E0
38E0
7FF0
7FF0
7070
E038
E038
E038
ENDCHAR
STARTCHAR 0042
ENCODING 66
SWIDTH 585 0
DWIDTH 13 0
BBX 12 16 1 0
BITMAP
FF00
FFC0
FFE0
E0E0
E0E0
E0E0
E1E0
FF80
FFE0
E0F0
E070
E070
E070
E1F0
FFE0
FFC0
ENDCHAR
STARTCHAR 0043
ENCODING 67
SWIDTH 675 0
DWIDTH 15 0
BBX 14 16 1 0
BITMAP
0780
1FE0
3FF0
7878
7038
F01C
E000
E000
E000
E000
E000
F038
7838
3FF0
3FF0
0FC0
ENDCHAR
STARTCHAR 0044
ENCODING 68
SWIDTH 675 0
DWIDTH 15 0
BBX 13 16 1 0
BITMAP
FE00
FFC0
FFE0
E0F0
E078
E038
E038
E038
E038
E038
E038
E078
E0F0
FFF0
FFE0
FF80
ENDCHAR
STARTCHAR 0045
ENCODING 69
SWIDTH 540 0
DWIDTH 12 0
BBX 11 16 1 0
BITMAP
FFE0
FFE0
FFE0
E000
E000
E000
E000
FF80
FF80
E000
E000
E000
E000
FFE0
FFE0
FFE0
ENDCHAR
STARTCHAR 0046
ENCODING 70
SWIDTH 495 0
DWIDTH 11 0
BBX 10 16 1 0
BITMAP
FFC0
FFC0
FFC0
E000
E000
E000
E000
FF80
FF80
E000
E000
E000
E000
E000
E000
E000
ENDCHAR
STARTCHAR 0047
ENCODING 71
SWIDTH 675 0
DWIDTH 15 0
BBX 14 16 1 0
BITMAP
0780
1FE0
3FF0
7878
7038
F000
E000
E000
E1FC
E1FC
E01C
703C
703C
7C7C
3FFC
0FDC
ENDCHAR
STARTCHAR 0048
ENCODING 72
SWIDTH 675 0
DWIDTH 15 0
BBX 13 16 1 0
BITMAP
E038
E038
E038
E038
E038
E038
E038
FFF8
FFF8
E038
E038
E038
E038
E038
E038
E038
ENDCHAR
STARTCHAR 0049
ENCODING 73
SWIDTH 225 0
DWIDTH 5 0
BBX 4 16 1 0
BITMAP
F0
F0
F0
F0
F0
F0
F0
F0
F0
F0
F0
F0
F0
F0
F0
F0
ENDCHAR
STARTCHAR 004A
ENCODING 74
SWIDTH 360 0
DWIDTH 8 0
BBX 6 16 1 0
BITMAP
1C
1C
1C
1C
1C
1C
1C
1C
1C
1C
1C
1C
1C
3C
F8
F0
ENDCHAR
STARTCHAR 004B
ENCODING 75
SWIDTH 630 0
DWIDTH 14 0
BBX 12 16 1 0
BITMAP
E070
E0E0
E1E0
E3C0
E780
EF00
EE00
FE00
FF00
F700
F380
E3C0
E1C0
E1E0
E0F0
E070
ENDCHAR
STARTCHAR 004C
ENCODING 76
SWIDTH 495 0
DWIDTH 11 0
BBX 10 16 1 0
BITMAP
E000
E000
E000
E000
E000
E000
E000
E000
E000
E000
E000
E000
E000
FFC0
FFC0
FFC0
ENDCHAR
STARTCHAR 004D
ENCODING 77
SWIDTH 810 0
DWIDTH 18 0
BBX 16 16 1 0
BITMAP
F80F
F81F
FC1F
FC1F
FC3F
EE3F
EE3F
EE77
E777
E777
E7E7
E3E7
E3E7
E3C7
E1C7
E1C7
ENDCHAR
STARTCHAR 004E
ENCODING 78
SWIDTH 675 0
DWIDTH 15 0
BBX 13 16 1 0
BITMAP
F038
F038
F838
FC38
FC38
FE38
EE38
E738
E7B8
E3B8
E3F8
E1F8
E0F8
E0F8
E078
E078
ENDCHAR
STARTCHAR 004F
ENCODING 79
SWIDTH 720 0
DWIDTH 16 0
BBX 14 16 1 0
BITMAP
0780
1FE0
3FF0
7878
7038
F03C
E01C
E01C
E01C
E01C
E01C
F03C
7878
7FF8
3FF0
0FC0
ENDCHAR
STARTCHAR 0050
ENCODING 80
SWIDTH 585 0
DWIDTH 13 0
BBX 12 16 1 0
BITMAP
FE00
FFC0
FFE0
E1E0
E0E0
E070
E070
E0E0
E3E0
FFC0
FF80
E000
E000
E000
E000
E000
ENDCHAR
STARTCHAR 0051
ENCODING 81
SWIDTH 720 0
DWIDTH 16 0
BBX 14 17 1 -1
BITMAP
0780
1FE0
3FF0
7878
7038
F03C
E01C
E01C
E01C
E01C
E39C
F1FC
78F8
7FF8
3FF0
0FF8
0018
ENDCHAR
STARTCHAR 0052
ENCODING 82
SWIDTH 585 0
DWIDTH 13 0
BBX 12 16 1 0
BITMAP
FE00
FFC0
FFE0
E1E0
E0F0
E070
E0F0
E1E0
FFE0
FFC0
E780
E380
E1C0
E1C0
E0E0
E0F0
ENDCHAR
STARTCHAR 0053
ENCODING 83
SWIDTH 585 0
DWIDTH 13 0
BBX 12 16 1 0
BITMAP
1F00
3FC0
7FE0
71E0
E0E0
F000
7800
7F80
1FC0
03E0
00F0
E0F0
F0E0
7FE0
7FC0
1F80
ENDCHAR
STARTCHAR 0054
ENCODING 84
SWIDTH 585 0
DWIDTH 13 0
BBX 11 16 1 0
BITMAP
FFE0
FFE0
FFE0
0E00
0E00
0E00
0E00
0E00
0E00
0E00
0E00
0E00
0E00
0E00
0E00
0E00
ENDCHAR
STARTCHAR 0055
ENCODING 85
SWIDTH 675 0
DWIDTH 15 0
BBX 13 16 1 0
BITMAP
E038
E038
E038
E038
E038
E038
E038
E038
E038
E038
E038
F078
7070
7FF0
3FE0
1FC0
ENDCHAR
STARTCHAR 0056
ENCODING 86
SWIDTH 630 0
DWIDTH 14 0
BBX 14 16 0 0
BITMAP
E01C
701C
701C
7038
3838
3838
3870
1C70
1C70
1CE0
0EE0
0EE0
0FC0
0FC0
07C0
0780
ENDCHAR
STARTCHAR 0057
ENCODING 87
SWIDTH 990 0
DWIDTH 22 0
BBX 22 16 0 0
BITMAP
E0301C
70781C
707838
707838
70FC38
38FC38
38FC70
38EE70
39CE70
19CE70
1DC6E0
1F87E0
1F87E0
0F87E0
0F03C0
0F03C0
ENDCHAR
STARTCHAR 0058
ENCODING 88
SWIDTH 675 0
DWIDTH 15 0
BBX 13 16 1 0
BITMAP
E038
F078
7070
38E0
38E0
1DC0
0FC0
0F80
0F80
0F80
1DC0
1DE0
38E0
7870
7070
E038
ENDCHAR
STARTCHAR 0059
ENCODING 89
SWIDTH 630 0
DWIDTH 14 0
BBX 13 16 1 0
BITMAP
E038
E070
7070
70E0
38E0
39C0
1DC0
1F80
0F80
0F00
0700
0700
0700
0700
0700
0700
ENDCHAR
STARTCHAR 005A
ENCODING 90
SWIDTH 585 0
DWIDTH 13 0
BBX 12 16 1 0
BITMAP
FFF0
FFF0
FFF0
00E0
01E0
03C0
0780
0700
0E00
1E00
3C00
7800
7000
FFF0
FFF0
FFF0
ENDCHAR
STARTCHAR 005B
ENCODING 91
SWIDTH 450 0
DWIDTH 10 0
BBX 7 22 2 -4
BITMAP
FE
FE
C0
C0
C0
C0
C0
C0
C0
C0
C0
C0
C0
C0
C0
C0
C0
C0
C0
C0
FE
FE
ENDCHAR
STARTCHAR 005C
ENCODING 92
SWIDTH 495 0
DWIDTH 11 0
BBX 10 22 1 -4
BITMAP
C000
E000
E000
7000
7000
7000
3800
3800
3800
1C00
1C00
1C00
0E00
0E00
0600
0700
0700
0380
0380
0380
01C0
01C0
ENDCHAR
STARTCHAR 005D
ENCODING 93
SWIDTH 450 0
DWIDTH 10 0
BBX 7 22 1 -4
BITMAP
FE
FE
06
06
06
06
06
06
06
06
06
06
06
06
06
06
06
06
06
06
FE
FE
ENDCHAR
STARTCHAR 005E
ENCODING 94
SWIDTH 405 0
DWIDTH 9 0
BBX 8 4 1 13
BITMAP
7C
7C
EE
E7
ENDCHAR
STARTCHAR 005F
ENCODING 95
SWIDTH 675 0
DWIDTH 15 0
BBX 11 2 2 0
BITMAP
FFE0
FFE0
ENDCHAR
STARTCHAR 0060
ENCODING 96
SWIDTH 270 0
DWIDTH 6 0
BBX 5 4 1 14
BITMAP
E0
70
70
38
ENDCHAR
STARTCHAR 0061
ENCODING 97
SWIDTH 585 0
DWIDTH 13 0
BBX 11 12 1 0
BITMAP
3EE0
7FE0
7BE0
F0E0
E0E0
E0E0
E0E0
E0E0
F0E0
F9E0
7FE0
3EE0
ENDCHAR
STARTCHAR 0062
ENCODING 98
SWIDTH 585 0
DWIDTH 13 0
BBX 12 17 1 0
BITMAP
E000
E000
E000
E000
E000
E780
EFC0
FFE0
F0E0
F0F0
E070
E070
F0F0
F0E0
F9E0
EFE0
E7C0
ENDCHAR
STARTCHAR 0063
ENCODING 99
SWIDTH 540 0
DWIDTH 12 0
BBX 11 12 1 0
BITMAP
1F00
3F80
7BC0
F1E0
E0E0
E000
E000
E0E0
E0E0
79C0
7FC0
1F00
ENDCHAR
STARTCHAR 0064
ENCODING 100
SWIDTH 585 0
DWIDTH 13 0
BBX 11 17 1 0
BITMAP
00E0
00E0
00E0
00E0
00E0
3EE0
7FE0
7FE0
F0E0
E0E0
E0E0
E0E0
E0E0
F0E0
79E0
7FE0
3EE0
ENDCHAR
STARTCHAR 0065
ENCODING 101
SWIDTH 540 0
DWIDTH 12 0
BBX 11 12 1 0
BITMAP
1F00
3F80
71C0
E0E0
E0E0
FFE0
FFE0
E000
E0E0
71C0
7FC0
1F00
ENDCHAR
STARTCHAR 0066
ENCODING 102
SWIDTH 360 0
DWIDTH 8 0
BBX 7 16 1 0
BITMAP
3E
3E
78
70
FE
FE
FE
70
70
70
70
70
70
70
70
70
ENDCHAR
STARTCHAR 0067
ENCODING 103
SWIDTH 585 0
DWIDTH 13 0
BBX 11 17 1 -5
BITMAP
3EE0
7FE0
7BE0
F0E0
E0E0
E0E0
E0E0
E0E0
F0E0
7FE0
7FE0
1CE0
00E0
00E0
0FE0
0FC0
0F00
ENDCHAR
STARTCHAR 0068
ENCODING 104
SWIDTH 585 0
DWIDTH 13 0
BBX 11 17 1 0
BITMAP
E000
E000
E000
E000
E000
E780
EFC0
FFE0
F0E0
E0E0
E0E0
E0E0
E0E0
E0E0
E0E0
E0E0
E0E0
ENDCHAR
STARTCHAR 0069
ENCODING 105
SWIDTH 270 0
DWIDTH 6 0
BBX 4 17 1 0
BITMAP
70
F0
70
00
00
70
70
70
70
70
70
70
70
70
70
70
70
ENDCHAR
STARTCHAR 006A
ENCODING 106
SWIDTH 270 0
DWIDTH 6 0
BBX 6 22 -1 -5
BITMAP
1C
1C
1C
00
00
1C
1C
1C
1C
1C
1C
1C
1C
1C
1C
1C
1C
1C
1C
3C
F8
F0
ENDCHAR
STARTCHAR 006B
ENCODING 107
SWIDTH 540 0
DWIDTH 12 0
BBX 10 17 1 0
BITMAP
F000
F000
F000
F000
F000
F1C0
F3C0
F780
F700
FE00
FC00
FE00
FF00
F700
F380
F3C0
F1C0
ENDCHAR
STARTCHAR 006C
ENCODING 108
SWIDTH 315 0
DWIDTH 7 0
BBX 6 17 1 0
BITMAP
E0
E0
E0
E0
E0
E0
E0
E0
E0
E0
E0
E0
E0
F0
F0
7C
7C
ENDCHAR
STARTCHAR 006D
ENCODING 109
SWIDTH 900 0
DWIDTH 20 0
BBX 18 12 1 0
BITMAP
E78F00
EFDF80
FFFFC0
F1E1C0
E0E1C0
E0E1C0
E0E1C0
E0E1C0
E0E1C0
E0E1C0
E0E1C0
E0E1C0
ENDCHAR
STARTCHAR 006E
ENCODING 110
SWIDTH 585 0
DWIDTH 13 0
BBX 11 12 1 0
BITMAP
E780
EFC0
FFE0
F0E0
E0E0
E0E0
E0E0
E0E0
E0E0
E0E0
E0E0
E0E0
ENDCHAR
STARTCHAR 006F
ENCODING 111
SWIDTH 585 0
DWIDTH 13 0
BBX 11 12 1 0
BITMAP
1F00
3F80
7BC0
F1E0
E0E0
E0E0
E0E0
E0E0
E0E0
7BC0
7FC0
1F00
ENDCHAR
STARTCHAR 0070
ENCODING 112
SWIDTH 585 0
DWIDTH 13 0
BBX 12 17 1 -5
BITMAP
E780
EFC0
FFE0
F0E0
F0F0
E070
E070
F0F0
F0E0
F9E0
EFE0
E7C0
E000
E000
E000
E000
E000
ENDCHAR
STARTCHAR 0071
ENCODING 113
SWIDTH 585 0
DWIDTH 13 0
BBX 12 17 1 -5
BITMAP
1EF0
7FF0
7FF0
F0F0
E0F0
E0F0
E0F0
E0F0
F0F0
79F0
7FF0
3EF0
00F0
00F0
00F0
00F0
00F0
ENDCHAR
STARTCHAR 0072
ENCODING 114
SWIDTH 360 0
DWIDTH 8 0
BBX 7 12 1 0
BITMAP
E6
EE
FE
F0
F0
E0
E0
E0
E0
E0
E0
E0
ENDCHAR
STARTCHAR 0073
ENCODING 115
SWIDTH 450 0
DWIDTH 10 0
BBX 9 12 1 0
BITMAP
3E00
7F00
E780
E380
F000
7E00
3F80
0380
E380
F380
7F80
3E00
ENDCHAR
STARTCHAR 0074
ENCODING 116
SWIDTH 405 0
DWIDTH 9 0
BBX 7 16 1 0
BITMAP
38
38
38
38
FE
FE
FE
38
38
38
38
38
38
38
3E
1E
ENDCHAR
STARTCHAR 0075
ENCODING 117
SWIDTH 585 0
DWIDTH 13 0
BBX 11 12 1 0
BITMAP
E0E0
E0E0
E0E0
E0E0
E0E0
E0E0
E0E0
E0E0
F0E0
79E0
7EE0
3EE0
ENDCHAR
STARTCHAR 0076
ENCODING 118
SWIDTH 540 0
DWIDTH 12 0
BBX 12 12 0 0
BITMAP
E070
7070
70E0
70E0
38E0
39C0
39C0
1DC0
1F80
1F80
0F80
0F00
ENDCHAR
STARTCHAR 0077
ENCODING 119
SWIDTH 810 0
DWIDTH 18 0
BBX 18 12 0 0
BITMAP
E0E1C0
71E1C0
71E380
71E380
31F380
3BF380
3BB300
3B3F00
1F3F00
1F3E00
1F1E00
1E1E00
ENDCHAR
STARTCHAR 0078
ENCODING 120
SWIDTH 540 0
DWIDTH 12 0
BBX 11 12 1 0
BITMAP
E1E0
F1C0
7380
3B80
3F00
1F00
1E00
3F00
3B80
7380
71C0
E1E0
ENDCHAR
STARTCHAR 0079
ENCODING 121
SWIDTH 540 0
DWIDTH 12 0
BBX 11 17 1 -5
BITMAP
E0E0
E1E0
E1C0
71C0
7180
7380
3B80
3B00
3F00
1E00
1E00
0E00
1C00
1C00
3800
F800
F000
ENDCHAR
STARTCHAR 007A
ENCODING 122
SWIDTH 495 0
DWIDTH 11 0
BBX 9 12 1 0
BITMAP
FF80
FF80
FF80
0700
0F00
0E00
1C00
3800
7000
E000
FF80
FF80
ENDCHAR
STARTCHAR 007B
ENCODING 123
SWIDTH 405 0
DWIDTH 9 0
BBX 7 24 2 -5
BITMAP
1E
3E
38
70
70
70
70
70
70
70
70
70
E0
70
70
70
70
70
70
70
70
30
3E
3E
ENDCHAR
STARTCHAR 007C
ENCODING 124
SWIDTH 270 0
DWIDTH 6 0
BBX 3 27 2 -6
BITMAP
E0
E0
E0
E0
E0
E0
E0
E0
E0
E0
E0
E0
E0
E0
E0
E0
E0
E0
E0
E0
E0
E0
E0
E0
E0
E0
E0
ENDCHAR
STARTCHAR 007D
ENCODING 125
SWIDTH 450 0
DWIDTH 10 0
BBX 7 24 2 -5
BITMAP
E0
F8
38
38
38
38
38
38
38
18
18
1C
0E
18
18
38
38
38
38
38
38
38
F8
F0
ENDCHAR
STARTCHAR 007E
ENCODING 126
SWIDTH 585 0
DWIDTH 13 0
BBX 9 3 2 7
BITMAP
3980
7F80
CF00
ENDCHAR
STARTCHAR 00A0
ENCODING 160
SWIDTH 225 0
DWIDTH 5 0
BBX 0 0 0 0
BITMAP
ENDCHAR
STARTCHAR 00A1
ENCODING 161
SWIDTH 270 0
DWIDTH 6 0
BBX 4 17 1 -6
BITMAP
60
F0
70
00
00
60
60
60
60
60
60
60
70
70
70
70
70
ENDCHAR
STARTCHAR 00A2
ENCODING 162
SWIDTH 585 0
DWIDTH 13 0
BBX 11 16 1 -2
BITMAP
0400
0400
1F00
3F80
7FC0
F5E0
E4E0
E400
E400
E4E0
E4E0
7DC0
7FC0
1F00
0400
0400
ENDCHAR
STARTCHAR 00A3
ENCODING 163
SWIDTH 585 0
DWIDTH 13 0
BBX 12 16 1 0
BITMAP
1F00
3FC0
7FE0
70E0
F0F0
7000
7800
7800
FF80
FF80
1C00
1C00
1800
FFF0
FFF0
FFF0
ENDCHAR
STARTCHAR 00A4
ENCODING 164
SWIDTH 585 0
DWIDTH 13 0
BBX 12 12 1 2
BITMAP
4020
FFF0
7FE0
70E0
6060
6060
6060
6060
70E0
7FE0
FFE0
6660
ENDCHAR
STARTCHAR 00A5
ENCODING 165
SWIDTH 630 0
DWIDTH 14 0
BBX 13 16 1 0
BITMAP
E038
E070
7070
70E0
38E0
39C0
1DC0
1F80
0F80
0F00
3FC0
0700
3FC0
3FC0
0700
0700
ENDCHAR
STARTCHAR 00A6
ENCODING 166
SWIDTH 270 0
DWIDTH 6 0
BBX 3 27 2 -6
BITMAP
E0
E0
E0
E0
E0
E0
E0
E0
E0
E0
E0
E0
00
00
00
E0
E0
E0
E0
E0
E0
E0
E0
E0
E0
E0
E0
ENDCHAR
STARTCHAR 00A7
ENCODING 167
SWIDTH 540 0
DWIDTH 12 0
BBX 11 16 1 0
BITMAP
1E00
7F80
73C0
61C0
7800
7F00
FFC0
E1C0
E0E0
7FC0
3FC0
07C0
E1C0
F3C0
7F80
3F00
ENDCHAR
STARTCHAR 00A8
ENCODING 168
SWIDTH 450 0
DWIDTH 10 0
BBX 9 3 1 14
BITMAP
E380
E780
E380
ENDCHAR
STARTCHAR 00A9
ENCODING 169
SWIDTH 765 0
DWIDTH 17 0
BBX 16 16 1 0
BITMAP
03C0
1FF8
3C3C
700E
63C6
C7F3
CC33
CC03
C803
CC33
CC33
67E6
61C6
381C
1FF8
0FF0
ENDCHAR
STARTCHAR 00AA
ENCODING 170
SWIDTH 135 0
DWIDTH 3 0
BBX 3 4 0 8
BITMAP
60
A0
E0
40
ENDCHAR
STARTCHAR 00AB
ENCODING 171
SWIDTH 675 0
DWIDTH 15 0
BBX 14 10 1 2
BITMAP
0E1C
1C38
3870
70E0
E1C0
E1C0
70E0
3870
1C38
0E38
ENDCHAR
STARTCHAR 00AC
ENCODING 172
SWIDTH 630 0
DWIDTH 14 0
BBX 11 6 2 6
BITMAP
FFE0
FFE0
FFE0
00E0
00E0
00E0
ENDCHAR
STARTCHAR 00AD
ENCODING 173
SWIDTH 585 0
DWIDTH 13 0
BBX 8 2 3 6
BITMAP
FF
FF
ENDCHAR
STARTCHAR 00AE
ENCODING 174
SWIDTH 315 0
DWIDTH 7 0
BBX 6 6 1 10
BITMAP
20
58
F8
A4
98
70
ENDCHAR
STARTCHAR 00AF
ENCODING 175
SWIDTH 360 0
DWIDTH 8 0
BBX 7 2 1 14
BITMAP
FE
FE
ENDCHAR
STARTCHAR 00B0
ENCODING 176
SWIDTH 315 0
DWIDTH 7 0
BBX 5 5 1 15
BITMAP
20
78
C8
D8
70
ENDCHAR
STARTCHAR 00B1
ENCODING 177
SWIDTH 585 0
DWIDTH 13 0
BBX 9 13 2 0
BITMAP
1C00
1C00
1C00
FF80
FF80
FF80
1C00
1C00
1C00
0000
0000
FF80
FF80
ENDCHAR
STARTCHAR 00B2
ENCODING 178
SWIDTH 270 0
DWIDTH 6 0
BBX 5 8 1 9
BITMAP
70
F8
88
18
30
60
C0
F8
ENDCHAR
STARTCHAR 00B3
ENCODING 179
SWIDTH 315 0
DWIDTH 7 0
BBX 6 9 1 8
BITMAP
78
F8
0C
38
38
0C
CC
F8
30
ENDCHAR
STARTCHAR 00B4
ENCODING 180
SWIDTH 270 0
DWIDTH 6 0
BBX 5 4 1 14
BITMAP
38
70
60
E0
ENDCHAR
STARTCHAR 00B5
ENCODING 181
SWIDTH 630 0
DWIDTH 14 0
BBX 13 17 1 -5
BITMAP
E1C0
E1C0
E1C0
E1C0
E1C0
E1C0
E1C0
E1C0
E1C0
F3E0
FEF8
FC78
E000
E000
E000
E000
E000
ENDCHAR
STARTCHAR 00B6
ENCODING 182
SWIDTH 540 0
DWIDTH 12 0
BBX 11 16 0 0
BITMAP
0FE0
3FE0
7FE0
FF20
FF20
FF20
7F20
7F20
1F20
0320
0320
0320
0320
0320
0320
0320
ENDCHAR
STARTCHAR 00B7
ENCODING 183
SWIDTH 270 0
DWIDTH 6 0
BBX 3 4 2 6
BITMAP
C0
E0
E0
40
ENDCHAR
STARTCHAR 00B8
ENCODING 184
SWIDTH 225 0
DWIDTH 5 0
BBX 4 6 1 -6
BITMAP
C0
E0
30
30
F0
40
ENDCHAR
STARTCHAR 00B9
ENCODING 185
SWIDTH 270 0
DWIDTH 6 0
BBX 5 8 1 9
BITMAP
60
E0
E0
60
60
60
60
F8
ENDCHAR
STARTCHAR 00BA
ENCODING 186
SWIDTH 135 0
DWIDTH 3 0
BBX 3 4 0 8
BITMAP
60
A0
A0
40
ENDCHAR
STARTCHAR 00BB
ENCODING 187
SWIDTH 675 0
DWIDTH 15 0
BBX 13 10 1 2
BITMAP
E1C0
70C0
38E0
1C70
0E38
0E38
1C70
3870
70E0
E1C0
ENDCHAR
STARTCHAR 00BC
ENCODING 188
SWIDTH 810 0
DWIDTH 18 0
BBX 17 16 1 0
BITMAP
700E00
F00C00
F01C00
B03800
303000
307000
F86000
F8E000
01C700
018700
038F00
031B00
071300
0E1F80
0C0300
1C0300
ENDCHAR
STARTCHAR 00BD
ENCODING 189
SWIDTH 855 0
DWIDTH 19 0
BBX 18 16 1 0
BITMAP
700600
F00E00
F00C00
B01C00
303800
303000
F87000
F86000
00E380
01C7C0
01CCC0
0380C0
030180
070700
0E0FC0
0E0FC0
ENDCHAR
STARTCHAR 00BE
ENCODING 190
SWIDTH 810 0
DWIDTH 18 0
BBX 17 16 1 0
BITMAP
300E00
F80C00
CC1C00
3C1800
383800
0C7000
CC7000
F8E000
00C300
01C700
038F00
038B00
071B00
061F80
0E0300
1C0300
ENDCHAR
STARTCHAR 00BF
ENCODING 191
SWIDTH 540 0
DWIDTH 12 0
BBX 11 16 1 -5
BITMAP
0400
0E00
0E00
0400
0000
0E00
0E00
1C00
3800
7000
F000
E0E0
E1E0
F3C0
7FC0
3F80
ENDCHAR
STARTCHAR 00C0
ENCODING 192
SWIDTH 675 0
DWIDTH 15 0
BBX 13 22 1 0
BITMAP
3800
1C00
0E00
0E00
0700
0000
0700
0700
0F80
0F80
0D80
1DC0
1DC0
18E0
38E0
38E0
7FF0
7FF0
7070
E038
E038
E038
ENDCHAR
STARTCHAR 00C1
ENCODING 193
SWIDTH 675 0
DWIDTH 15 0
BBX 13 22 1 0
BITMAP
00E0
01C0
0380
0380
0700
0000
0700
0700
0F80
0F80
0D80
1DC0
1DC0
18E0
38E0
38E0
7FF0
7FF0
7070
E038
E038
E038
ENDCHAR
STARTCHAR 00C2
ENCODING 194
SWIDTH 675 0
DWIDTH 15 0
BBX 13 20 1 0
BITMAP
0780
0D80
18C0
0000
0700
0700
0F80
0F80
0D80
1DC0
1DC0
18E0
38E0
38E0
7FF0
7FF0
7070
E038
E038
E038
ENDCHAR
STARTCHAR 00C3
ENCODING 195
SWIDTH 675 0
DWIDTH 15 0
BBX 13 20 1 0
BITMAP
1FC0
1FC0
1800
0000
0700
0700
0F80
0F80
0D80
1DC0
1DC0
18E0
38E0
38E0
7FF0
7FF0
7070
E038
E038
E038
ENDCHAR
STARTCHAR 00C4
ENCODING 196
SWIDTH 675 0
DWIDTH 15 0
BBX 13 21 1 0
BITMAP
18E0
3CE0
38E0
0000
0000
0700
0700
0F80
0F80
0D80
1DC0
1DC0
18E0
38E0
38E0
7FF0
7FF0
7070
E038
E038
E038
ENDCHAR
STARTCHAR 00C5
ENCODING 197
SWIDTH 675 0
DWIDTH 15 0
BBX 13 22 1 0
BITMAP
0200
0700
0D80
0D80
0700
0000
0700
0700
0F80
0F80
0D80
1DC0
1DC0
18E0
38E0
38E0
7FF0
7FF0
7070
E038
E038
E038
ENDCHAR
STARTCHAR 00C6
ENCODING 198
SWIDTH 945 0
DWIDTH 21 0
BBX 20 16 0 0
BITMAP
00FFF0
01FFF0
01FFF0
03F800
03B800
07B800
073800
0F3FE0
0E3FE0
1E3800
1FF800
3FF800
383800
783FF0
703FF0
F03FF0
ENDCHAR
STARTCHAR 00C7
ENCODING 199
SWIDTH 675 0
DWIDTH 15 0
BBX 14 22 1 -6
BITMAP
0780
1FE0
3FF0
7878
7038
F01C
E000
E000
E000
E000
E000
F038
7838
3FF0
3FF0
0FC0
0200
0380
00C0
00C0
0380
0100
ENDCHAR
STARTCHAR 00C8
ENCODING 200
SWIDTH 540 0
DWIDTH 12 0
BBX 11 22 1 0
BITMAP
7000
3800
1800
1C00
0C00
0000
FFE0
FFE0
FFE0
E000
E000
E000
E000
FF80
FF80
E000
E000
E000
E000
FFE0
FFE0
FFE0
ENDCHAR
STARTCHAR 00C9
ENCODING 201
SWIDTH 540 0
DWIDTH 12 0
BBX 11 22 1 0
BITMAP
0380
0380
0700
0600
0E00
0000
FFE0
FFE0
FFE0
E000
E000
E000
E000
FF80
FF80
E000
E000
E000
E000
FFE0
FFE0
FFE0
ENDCHAR
STARTCHAR 00CA
ENCODING 202
SWIDTH 540 0
DWIDTH 12 0
BBX 11 20 1 0
BITMAP
1E00
3B00
3380
0000
FFE0
FFE0
FFE0
E000
E000
E000
E000
FF80
FF80
E000
E000
E000
E000
FFE0
FFE0
FFE0
ENDCHAR
STARTCHAR 00CB
ENCODING 203
SWIDTH 540 0
DWIDTH 12 0
BBX 11 21 1 0
BITMAP
71C0
71C0
71C0
0000
0000
FFE0
FFE0
FFE0
E000
E000
E000
E000
FF80
FF80
E000
E000
E000
E000
FFE0
FFE0
FFE0
ENDCHAR
STARTCHAR 00CC
ENCODING 204
SWIDTH 225 0
DWIDTH 5 0
BBX 6 22 -1 0
BITMAP
E0
60
70
38
18
00
3C
3C
3C
3C
3C
3C
3C
3C
3C
3C
3C
3C
3C
3C
3C
3C
ENDCHAR
STARTCHAR 00CD
ENCODING 205
SWIDTH 225 0
DWIDTH 5 0
BBX 6 22 1 0
BITMAP
1C
38
38
70
60
00
F0
F0
F0
F0
F0
F0
F0
F0
F0
F0
F0
F0
F0
F0
F0
F0
ENDCHAR
STARTCHAR 00CE
ENCODING 206
SWIDTH 225 0
DWIDTH 5 0
BBX 8 20 -1 0
BITMAP
3C
7E
E7
00
3C
3C
3C
3C
3C
3C
3C
3C
3C
3C
3C
3C
3C
3C
3C
3C
ENDCHAR
STARTCHAR 00CF
ENCODING 207
SWIDTH 225 0
DWIDTH 5 0
BBX 9 21 -1 0
BITMAP
E300
E780
E700
0000
0000
3C00
3C00
3C00
3C00
3C00
3C00
3C00
3C00
3C00
3C00
3C00
3C00
3C00
3C00
3C00
3C00
ENDCHAR
STARTCHAR 00D0
ENCODING 208
SWIDTH 675 0
DWIDTH 15 0
BBX 14 16 1 0
BITMAP
7F00
7FE0
7FF0
70F8
7038
703C
703C
FC1C
FC1C
701C
703C
7038
7078
7FF0
7FE0
7FC0
ENDCHAR
STARTCHAR 00D1
ENCODING 209
SWIDTH 675 0
DWIDTH 15 0
BBX 13 20 1 0
BITMAP
0FC0
1FC0
1800
0000
F038
F038
F838
FC38
FC38
FE38
EE38
E738
E7B8
E3B8
E3F8
E1F8
E0F8
E0F8
E078
E078
ENDCHAR
STARTCHAR 00D2
ENCODING 210
SWIDTH 720 0
DWIDTH 16 0
BBX 14 22 1 0
BITMAP
1C00
0E00
0E00
0700
0300
0000
0780
1FE0
3FF0
7878
7038
F03C
E01C
E01C
E01C
E01C
E01C
F03C
7878
7FF8
3FF0
0FC0
ENDCHAR
STARTCHAR 00D3
ENCODING 211
SWIDTH 720 0
DWIDTH 16 0
BBX 14 22 1 0
BITMAP
00E0
00C0
01C0
0180
0300
0000
0780
1FE0
3FF0
7878
7038
F03C
E01C
E01C
E01C
E01C
E01C
F03C
7878
7FF8
3FF0
0FC0
ENDCHAR
STARTCHAR 00D4
ENCODING 212
SWIDTH 720 0
DWIDTH 16 0
BBX 14 20 1 0
BITMAP
0780
0FC0
1CE0
0000
0780
1FE0
3FF0
7878
7038
F03C
E01C
E01C
E01C
E01C
E01C
F03C
7878
7FF8
3FF0
0FC0
ENDCHAR
STARTCHAR 00D5
ENCODING 213
SWIDTH 720 0
DWIDTH 16 0
BBX 14 20 1 0
BITMAP
0F60
0FC0
0800
0000
0780
1FE0
3FF0
7878
7038
F03C
E01C
E01C
E01C
E01C
E01C
F03C
7878
7FF8
3FF0
0FC0
ENDCHAR
STARTCHAR 00D6
ENCODING 214
SWIDTH 720 0
DWIDTH 16 0
BBX 14 21 1 0
BITMAP
1C60
1CF0
1CF0
0000
0000
0780
1FE0
3FF0
7878
7038
F03C
E01C
E01C
E01C
E01C
E01C
F03C
7878
7FF8
3FF0
0FC0
ENDCHAR
STARTCHAR 00D7
ENCODING 215
SWIDTH 540 0
DWIDTH 12 0
BBX 9 8 2 3
BITMAP
6300
F780
7F00
3E00
3E00
7F00
F780
6300
ENDCHAR
STARTCHAR 00D8
ENCODING 216
SWIDTH 720 0
DWIDTH 16 0
BBX 14 18 1 -1
BITMAP
001C
07DC
1FF8
3FF0
7878
70FC
F0DC
F1DC
E39C
E31C
E71C
FE1C
7E3C
7C38
3FF8
3FF0
7FC0
6000
ENDCHAR
STARTCHAR 00D9
ENCODING 217
SWIDTH 675 0
DWIDTH 15 0
BBX 13 22 1 0
BITMAP
1C00
1C00
0E00
0600
0700
0000
E038
E038
E038
E038
E038
E038
E038
E038
E038
E038
E038
F078
7070
7FF0
3FE0
1FC0
ENDCHAR
STARTCHAR 00DA
ENCODING 218
SWIDTH 675 0
DWIDTH 15 0
BBX 13 22 1 0
BITMAP
00E0
01C0
0180
0380
0300
0000
E038
E038
E038
E038
E038
E038
E038
E038
E038
E038
E038
F078
7070
7FF0
3FE0
1FC0
ENDCHAR
STARTCHAR 00DB
ENCODING 219
SWIDTH 675 0
DWIDTH 15 0
BBX 13 20 1 0
BITMAP
0780
0DC0
1CC0
0000
E038
E038
E038
E038
E038
E038
E038
E038
E038
E038
E038
F078
7070
7FF0
3FE0
1FC0
ENDCHAR
STARTCHAR 00DC
ENCODING 220
SWIDTH 675 0
DWIDTH 15 0
BBX 13 21 1 0
BITMAP
18E0
3CE0
38E0
0000
0000
E038
E038
E038
E038
E038
E038
E038
E038
E038
E038
E038
F078
7070
7FF0
3FE0
1FC0
ENDCHAR
STARTCHAR 00DD
ENCODING 221
SWIDTH 630 0
DWIDTH 14 0
BBX 13 22 1 0
BITMAP
01C0
01C0
0380
0300
0700
0000
E038
E070
7070
70E0
38E0
39C0
1DC0
1F80
0F80
0F00
0700
0700
0700
0700
0700
0700
ENDCHAR
STARTCHAR 00DE
ENCODING 222
SWIDTH 585 0
DWIDTH 13 0
BBX 12 16 1 0
BITMAP
E000
E000
E000
FF80
FFC0
FFE0
E0E0
E070
E070
E0F0
E0E0
FFE0
FFC0
FC00
E000
E000
ENDCHAR
STARTCHAR 00DF
ENCODING 223
SWIDTH 585 0
DWIDTH 13 0
BBX 11 16 1 0
BITMAP
1F00
7FC0
7BC0
F0E0
E0E0
E0E0
E3C0
EF80
EFC0
E0E0
E0E0
E0E0
E0E0
E1E0
E7C0
E780
ENDCHAR
STARTCHAR 00E0
ENCODING 224
SWIDTH 585 0
DWIDTH 13 0
BBX 11 18 1 0
BITMAP
3800
1800
1C00
0C00
0600
0000
3EE0
7FE0
7BE0
F0E0
E0E0
E0E0
E0E0
E0E0
F0E0
F9E0
7FE0
3EE0
ENDCHAR
STARTCHAR 00E1
ENCODING 225
SWIDTH 585 0
DWIDTH 13 0
BBX 11 18 1 0
BITMAP
01C0
0380
0300
0700
0600
0000
3EE0
7FE0
7BE0
F0E0
E0E0
E0E0
E0E0
E0E0
F0E0
F9E0
7FE0
3EE0
ENDCHAR
STARTCHAR 00E2
ENCODING 226
SWIDTH 585 0
DWIDTH 13 0
BBX 11 17 1 0
BITMAP
0600
0F00
1F80
39C0
0000
3EE0
7FE0
7BE0
F0E0
E0E0
E0E0
E0E0
E0E0
F0E0
F9E0
7FE0
3EE0
ENDCHAR
STARTCHAR 00E3
ENCODING 227
SWIDTH 585 0
DWIDTH 13 0
BBX 11 17 1 0
BITMAP
0880
1F80
3780
0000
0000
3EE0
7FE0
7BE0
F0E0
E0E0
E0E0
E0E0
E0E0
F0E0
F9E0
7FE0
3EE0
ENDCHAR
STARTCHAR 00E4
ENCODING 228
SWIDTH 585 0
DWIDTH 13 0
BBX 11 17 1 0
BITMAP
39C0
79C0
39C0
0000
0000
3EE0
7FE0
7BE0
F0E0
E0E0
E0E0
E0E0
E0E0
F0E0
F9E0
7FE0
3EE0
ENDCHAR
STARTCHAR 00E5
ENCODING 229
SWIDTH 585 0
DWIDTH 13 0
BBX 11 18 1 0
BITMAP
0600
0F00
0900
0F00
0600
0000
3EE0
7FE0
7BE0
F0E0
E0E0
E0E0
E0E0
E0E0
F0E0
F9E0
7FE0
3EE0
ENDCHAR
STARTCHAR 00E6
ENCODING 230
SWIDTH 900 0
DWIDTH 20 0
BBX 18 12 1 0
BITMAP
1E1E00
7FFF80
7BF380
E1E1C0
01C1C0
1FFFC0
7FFFC0
E1C000
E1E1C0
E3F3C0
FF7F80
7E3F00
ENDCHAR
STARTCHAR 00E7
ENCODING 231
SWIDTH 540 0
DWIDTH 12 0
BBX 11 17 1 -5
BITMAP
1F00
3F80
7BC0
F1E0
E0E0
E000
E000
E0E0
E0E0
79C0
7FC0
1F00
0400
0F00
0180
0180
0F00
ENDCHAR
STARTCHAR 00E8
ENCODING 232
SWIDTH 540 0
DWIDTH 12 0
BBX 11 18 1 0
BITMAP
3800
3800
1C00
0C00
0E00
0000
1F00
3F80
71C0
E0E0
E0E0
FFE0
FFE0
E000
E0E0
71C0
7FC0
1F00
ENDCHAR
STARTCHAR 00E9
ENCODING 233
SWIDTH 540 0
DWIDTH 12 0
BBX 11 18 1 0
BITMAP
0380
0380
0700
0700
0E00
0000
1F00
3F80
71C0
E0E0
E0E0
FFE0
FFE0
E000
E0E0
71C0
7FC0
1F00
ENDCHAR
STARTCHAR 00EA
ENCODING 234
SWIDTH 540 0
DWIDTH 12 0
BBX 11 17 1 0
BITMAP
0E00
1F00
3B80
31C0
0000
1F00
3F80
71C0
E0E0
E0E0
FFE0
FFE0
E000
E0E0
71C0
7FC0
1F00
ENDCHAR
STARTCHAR 00EB
ENCODING 235
SWIDTH 540 0
DWIDTH 12 0
BBX 11 17 1 0
BITMAP
71C0
79C0
71C0
0000
0000
1F00
3F80
71C0
E0E0
E0E0
FFE0
FFE0
E000
E0E0
71C0
7FC0
1F00
ENDCHAR
STARTCHAR 00EC
ENCODING 236
SWIDTH 270 0
DWIDTH 6 0
BBX 6 18 -1 0
BITMAP
E0
70
30
38
18
00
1C
1C
1C
1C
1C
1C
1C
1C
1C
1C
1C
1C
ENDCHAR
STARTCHAR 00ED
ENCODING 237
SWIDTH 270 0
DWIDTH 6 0
BBX 5 18 2 0
BITMAP
38
30
70
60
C0
00
E0
E0
E0
E0
E0
E0
E0
E0
E0
E0
E0
E0
ENDCHAR
STARTCHAR 00EE
ENCODING 238
SWIDTH 270 0
DWIDTH 6 0
BBX 8 17 -1 0
BITMAP
18
3C
7E
E7
00
1C
1C
1C
1C
1C
1C
1C
1C
1C
1C
1C
1C
ENDCHAR
STARTCHAR 00EF
ENCODING 239
SWIDTH 270 0
DWIDTH 6 0
BBX 9 17 -1 0
BITMAP
E300
E780
E380
0000
0000
1C00
1C00
1C00
1C00
1C00
1C00
1C00
1C00
1C00
1C00
1C00
1C00
ENDCHAR
STARTCHAR 00F0
ENCODING 240
SWIDTH 585 0
DWIDTH 13 0
BBX 11 18 1 0
BITMAP
1E40
1FE0
0780
0FC0
05E0
00E0
3CE0
7EE0
FBE0
E1E0
E0E0
E0E0
E0E0
E0E0
E1E0
F3C0
7F80
3F00
ENDCHAR
STARTCHAR 00F1
ENCODING 241
SWIDTH 585 0
DWIDTH 13 0
BBX 11 17 1 0
BITMAP
0880
3F80
3780
0000
0000
E780
EFC0
FFE0
F0E0
E0E0
E0E0
E0E0
E0E0
E0E0
E0E0
E0E0
E0E0
ENDCHAR
STARTCHAR 00F2
ENCODING 242
SWIDTH 585 0
DWIDTH 13 0
BBX 11 18 1 0
BITMAP
3800
3800
1C00
0C00
0E00
0000
1F00
3F80
7BC0
F1E0
E0E0
E0E0
E0E0
E0E0
E0E0
7BC0
7FC0
1F00
ENDCHAR
STARTCHAR 00F3
ENCODING 243
SWIDTH 585 0
DWIDTH 13 0
BBX 11 18 1 0
BITMAP
0380
0380
0700
0600
0E00
0000
1F00
3F80
7BC0
F1E0
E0E0
E0E0
E0E0
E0E0
E0E0
7BC0
7FC0
1F00
ENDCHAR
STARTCHAR 00F4
ENCODING 244
SWIDTH 585 0
DWIDTH 13 0
BBX 11 17 1 0
BITMAP
0E00
1F00
3B80
31C0
0000
1F00
3F80
7BC0
F1E0
E0E0
E0E0
E0E0
E0E0
E0E0
7BC0
7FC0
1F00
ENDCHAR
STARTCHAR 00F5
ENCODING 245
SWIDTH 585 0
DWIDTH 13 0
BBX 11 17 1 0
BITMAP
1980
3F80
3780
0000
0000
1F00
3F80
7BC0
F1E0
E0E0
E0E0
E0E0
E0E0
E0E0
7BC0
7FC0
1F00
ENDCHAR
STARTCHAR 00F6
ENCODING 246
SWIDTH 585 0
DWIDTH 13 0
BBX 11 17 1 0
BITMAP
71C0
79C0
71C0
0000
0000
1F00
3F80
7BC0
F1E0
E0E0
E0E0
E0E0
E0E0
E0E0
7BC0
7FC0
1F00
ENDCHAR
STARTCHAR 00F7
ENCODING 247
SWIDTH 585 0
DWIDTH 13 0
BBX 9 12 2 1
BITMAP
1C00
1C00
1C00
0000
0000
FF80
FF80
0000
0000
1C00
1C00
1C00
ENDCHAR
STARTCHAR 00F8
ENCODING 248
SWIDTH 585 0
DWIDTH 13 0
BBX 11 14 1 -1
BITMAP
00C0
1FC0
3F80
7BC0
F3E0
E6E0
E6E0
ECE0
ECE0
F8E0
7BC0
7FC0
7F00
6000
ENDCHAR
STARTCHAR 00F9
ENCODING 249
SWIDTH 585 0
DWIDTH 13 0
BBX 11 18 1 0
BITMAP
7000
3800
1C00
1C00
0E00
0000
E0E0
E0E0
E0E0
E0E0
E0E0
E0E0
E0E0
E0E0
F0E0
79E0
7EE0
3EE0
ENDCHAR
STARTCHAR 00FA
ENCODING 250
SWIDTH 585 0
DWIDTH 13 0
BBX 11 18 1 0
BITMAP
0380
0380
0700
0600
0E00
0000
E0E0
E0E0
E0E0
E0E0
E0E0
E0E0
E0E0
E0E0
F0E0
79E0
7EE0
3EE0
ENDCHAR
STARTCHAR 00FB
ENCODING 251
SWIDTH 585 0
DWIDTH 13 0
BBX 11 17 1 0
BITMAP
0E00
1F00
3B80
7180
0000
E0E0
E0E0
E0E0
E0E0
E0E0
E0E0
E0E0
E0E0
F0E0
79E0
7EE0
3EE0
ENDCHAR
STARTCHAR 00FC
ENCODING 252
SWIDTH 585 0
DWIDTH 13 0
BBX 11 17 1 0
BITMAP
71C0
71C0
71C0
0000
0000
E0E0
E0E0
E0E0
E0E0
E0E0
E0E0
E0E0
E0E0
F0E0
79E0
7EE0
3EE0
ENDCHAR
STARTCHAR 00FD
ENCODING 253
SWIDTH 540 0
DWIDTH 12 0
BBX 11 23 1 -5
BITMAP
0380
0300
0700
0600
0C00
0000
E0E0
E1E0
E1C0
71C0
7180
7380
3B80
3B00
3F00
1E00
1E00
0E00
1C00
1C00
3800
F800
F000
ENDCHAR
STARTCHAR 00FE
ENCODING 254
SWIDTH 585 0
DWIDTH 13 0
BBX 12 22 1 -5
BITMAP
E000
E000
E000
E000
E000
E780
EFC0
FFE0
F0E0
F0F0
E070
E070
F0F0
F0E0
F9E0
EFE0
E7C0
E000
E000
E000
E000
E000
ENDCHAR
STARTCHAR 00FF
ENCODING 255
SWIDTH 540 0
DWIDTH 12 0
BBX 11 22 1 -5
BITMAP
71C0
73C0
71C0
0000
0000
E0E0
E1E0
E1C0
71C0
7180
7380
3B80
3B00
3F00
1E00
1E00
0E00
1C00
1C00
3800
F800
F000
ENDCHAR
STARTCHAR 0100
ENCODING 256
SWIDTH 675 0
DWIDTH 15 0
BBX 13 19 1 0
BITMAP
1FC0
0000
0000
0700
0700
0F80
0F80
0D80
1DC0
1DC0
18E0
38E0
38E0
7FF0
7FF0
7070
E038
E038
E038
ENDCHAR
STARTCHAR 0101
ENCODING 257
SWIDTH 585 0
DWIDTH 13 0
BBX 11 15 1 0
BITMAP
3F80
0000
0000
3EE0
7FE0
7BE0
F0E0
E0E0
E0E0
E0E0
E0E0
F0E0
F9E0
7FE0
3EE0
ENDCHAR
STARTCHAR 0102
ENCODING 258
SWIDTH 675 0
DWIDTH 15 0
BBX 13 20 1 0
BITMAP
18C0
1FC0
0700
0000
0700
0700
0F80
0F80
0D80
1DC0
1DC0
18E0
38E0
38E0
7FF0
7FF0
7070
E038
E038
E038
ENDCHAR
STARTCHAR 0103
ENCODING 259
SWIDTH 585 0
DWIDTH 13 0
BBX 11 16 1 0
BITMAP
39C0
1F80
0600
0000
3EE0
7FE0
7BE0
F0E0
E0E0
E0E0
E0E0
E0E0
F0E0
F9E0
7FE0
3EE0
ENDCHAR
STARTCHAR 0104
ENCODING 260
SWIDTH 675 0
DWIDTH 15 0
BBX 14 20 1 -4
BITMAP
0700
0700
0F80
0F80
0D80
1DC0
1DC0
18E0
38E0
38E0
7FF0
7FF0
7070
E038
E038
E038
0030
0030
003C
001C
ENDCHAR
STARTCHAR 0105
ENCODING 261
SWIDTH 585 0
DWIDTH 13 0
BBX 12 16 1 -4
BITMAP
3EE0
7FE0
7BE0
F0E0
E0E0
E0E0
E0E0
E0E0
F0E0
F9E0
7FE0
3EE0
00E0
00C0
00F0
0070
ENDCHAR
STARTCHAR 0106
ENCODING 262
SWIDTH 675 0
DWIDTH 15 0
BBX 14 22 1 0
BITMAP
00E0
01C0
01C0
0380
0300
0000
0780
1FE0
3FF0
7878
7038
F01C
E000
E000
E000
E000
E000
F038
7838
3FF0
3FF0
0FC0
ENDCHAR
STARTCHAR 0107
ENCODING 263
SWIDTH 540 0
DWIDTH 12 0
BBX 11 18 1 0
BITMAP
0380
0380
0700
0700
0E00
0000
1F00
3F80
7BC0
F1E0
E0E0
E000
E000
E0E0
E0E0
79C0
7FC0
1F00
ENDCHAR
STARTCHAR 010A
ENCODING 266
SWIDTH 675 0
DWIDTH 15 0
BBX 14 21 1 0
BITMAP
0300
0780
0700
0000
0000
0780
1FE0
3FF0
7878
7038
F01C
E000
E000
E000
E000
E000
F038
7838
3FF0
3FF0
0FC0
ENDCHAR
STARTCHAR 010B
ENCODING 267
SWIDTH 540 0
DWIDTH 12 0
BBX 11 17 1 0
BITMAP
0E00
0E00
0E00
0000
0000
1F00
3F80
7BC0
F1E0
E0E0
E000
E000
E0E0
E0E0
79C0
7FC0
1F00
ENDCHAR
STARTCHAR 010C
ENCODING 268
SWIDTH 675 0
DWIDTH 15 0
BBX 14 20 1 0
BITMAP
1CE0
0F80
0780
0000
0780
1FE0
3FF0
7878
7038
F01C
E000
E000
E000
E000
E000
F038
7838
3FF0
3FF0
0FC0
ENDCHAR
STARTCHAR 010D
ENCODING 269
SWIDTH 540 0
DWIDTH 12 0
BBX 11 17 1 0
BITMAP
71C0
3B80
1F00
0E00
0000
1F00
3F80
7BC0
F1E0
E0E0
E000
E000
E0E0
E0E0
79C0
7FC0
1F00
ENDCHAR
STARTCHAR 010E
ENCODING 270
SWIDTH 675 0
DWIDTH 15 0
BBX 13 20 1 0
BITMAP
3DC0
0F80
0700
0000
FE00
FFC0
FFE0
E0F0
E078
E038
E038
E038
E038
E038
E038
E078
E0F0
FFF0
FFE0
FF80
ENDCHAR
STARTCHAR 010F
ENCODING 271
SWIDTH 765 0
DWIDTH 17 0
BBX 16 18 1 0
BITMAP
0007
00EF
00EF
00E1
00E1
00E2
3EE4
7FE0
7FE0
F0E0
E0E0
E0E0
E0E0
E0E0
F0E0
79E0
7FE0
3EE0
ENDCHAR
STARTCHAR 0110
ENCODING 272
SWIDTH 675 0
DWIDTH 15 0
BBX 14 16 1 0
BITMAP
7F00
7FE0
7FF0
70F8
7038
703C
703C
FC1C
FC1C
701C
703C
7038
7078
7FF0
7FE0
7FC0
ENDCHAR
STARTCHAR 0111
ENCODING 273
SWIDTH 585 0
DWIDTH 13 0
BBX 13 17 1 0
BITMAP
00E0
00E0
03F8
03F8
00E0
3EE0
7FE0
7FE0
F0E0
E0E0
E0E0
E0E0
E0E0
F0E0
79E0
7FE0
3EE0
ENDCHAR
STARTCHAR 0112
ENCODING 274
SWIDTH 540 0
DWIDTH 12 0
BBX 11 19 1 0
BITMAP
3F80
0000
0000
FFE0
FFE0
FFE0
E000
E000
E000
E000
FF80
FF80
E000
E000
E000
E000
FFE0
FFE0
FFE0
ENDCHAR
STARTCHAR 0113
ENCODING 275
SWIDTH 540 0
DWIDTH 12 0
BBX 11 15 1 0
BITMAP
3F80
0000
0000
1F00
3F80
71C0
E0E0
E0E0
FFE0
FFE0
E000
E0E0
71C0
7FC0
1F00
ENDCHAR
STARTCHAR 0116
ENCODING 278
SWIDTH 540 0
DWIDTH 12 0
BBX 11 21 1 0
BITMAP
0E00
0E00
0E00
0000
0000
FFE0
FFE0
FFE0
E000
E000
E000
E000
FF80
FF80
E000
E000
E000
E000
FFE0
FFE0
FFE0
ENDCHAR
STARTCHAR 0117
ENCODING 279
SWIDTH 540 0
DWIDTH 12 0
BBX 11 17 1 0
BITMAP
0E00
0E00
0E00
0000
0000
1F00
3F80
71C0
E0E0
E0E0
FFE0
FFE0
E000
E0E0
71C0
7FC0
1F00
ENDCHAR
STARTCHAR 0118
ENCODING 280
SWIDTH 540 0
DWIDTH 12 0
BBX 11 20 1 -4
BITMAP
FFE0
FFE0
FFE0
E000
E000
E000
E000
FF80
FF80
E000
E000
E000
E000
FFE0
FFE0
FFE0
00C0
0180
00E0
00E0
ENDCHAR
STARTCHAR 0119
ENCODING 281
SWIDTH 540 0
DWIDTH 12 0
BBX 11 16 1 -4
BITMAP
1F00
3F80
71C0
E0E0
E0E0
FFE0
FFE0
E000
E0E0
71C0
7FC0
1F00
0C00
1800
1E00
0E00
ENDCHAR
STARTCHAR 011A
ENCODING 282
SWIDTH 540 0
DWIDTH 12 0
BBX 11 20 1 0
BITMAP
3B80
1F00
0E00
0000
FFE0
FFE0
FFE0
E000
E000
E000
E000
FF80
FF80
E000
E000
E000
E000
FFE0
FFE0
FFE0
ENDCHAR
STARTCHAR 011B
ENCODING 283
SWIDTH 540 0
DWIDTH 12 0
BBX 11 17 1 0
BITMAP
71C0
3B80
1F00
0E00
0000
1F00
3F80
71C0
E0E0
E0E0
FFE0
FFE0
E000
E0E0
71C0
7FC0
1F00
ENDCHAR
STARTCHAR 011E
ENCODING 286
SWIDTH 675 0
DWIDTH 15 0
BBX 14 20 1 0
BITMAP
1CE0
0FC0
0780
0000
0780
1FE0
3FF0
7878
7038
F000
E000
E000
E1FC
E1FC
E01C
703C
703C
7C7C
3FFC
0FDC
ENDCHAR
STARTCHAR 011F
ENCODING 287
SWIDTH 585 0
DWIDTH 13 0
BBX 11 21 1 -5
BITMAP
39C0
1F80
0600
0000
3EE0
7FE0
7BE0
F0E0
E0E0
E0E0
E0E0
E0E0
F0E0
7FE0
7FE0
1CE0
00E0
00E0
0FE0
0FC0
0F00
ENDCHAR
STARTCHAR 0120
ENCODING 288
SWIDTH 675 0
DWIDTH 15 0
BBX 14 21 1 0
BITMAP
0300
0780
0780
0000
0000
0780
1FE0
3FF0
7878
7038
F000
E000
E000
E1FC
E1FC
E01C
703C
703C
7C7C
3FFC
0FDC
ENDCHAR
STARTCHAR 0121
ENCODING 289
SWIDTH 585 0
DWIDTH 13 0
BBX 11 22 1 -5
BITMAP
0E00
0E00
0E00
0000
0000
3EE0
7FE0
7BE0
F0E0
E0E0
E0E0
E0E0
E0E0
F0E0
7FE0
7FE0
1CE0
00E0
00E0
0FE0
0FC0
0F00
ENDCHAR
STARTCHAR 0126
ENCODING 294
SWIDTH 675 0
DWIDTH 15 0
BBX 15 16 0 0
BITMAP
781C
781C
FFFE
FFFE
FFFE
781C
781C
7FFC
7FFC
781C
781C
781C
781C
781C
781C
781C
ENDCHAR
STARTCHAR 0127
ENCODING 295
SWIDTH 585 0
DWIDTH 13 0
BBX 13 17 0 0
BITMAP
3800
3800
FE00
FE00
3800
3BE0
3FF0
3FF0
3870
3878
3878
3878
3878
3878
3878
3878
3878
ENDCHAR
STARTCHAR 0128
ENCODING 296
SWIDTH 225 0
DWIDTH 5 0
BBX 7 20 -1 0
BITMAP
7A
FE
C0
00
3C
3C
3C
3C
3C
3C
3C
3C
3C
3C
3C
3C
3C
3C
3C
3C
ENDCHAR
STARTCHAR 0129
ENCODING 297
SWIDTH 270 0
DWIDTH 6 0
BBX 7 17 0 0
BITMAP
46
FE
BC
00
00
38
38
38
38
38
38
38
38
38
38
38
38
ENDCHAR
STARTCHAR 012A
ENCODING 298
SWIDTH 225 0
DWIDTH 5 0
BBX 8 19 -1 0
BITMAP
FF
00
00
3C
3C
3C
3C
3C
3C
3C
3C
3C
3C
3C
3C
3C
3C
3C
3C
ENDCHAR
STARTCHAR 012B
ENCODING 299
SWIDTH 270 0
DWIDTH 6 0
BBX 7 15 0 0
BITMAP
FE
00
00
38
38
38
38
38
38
38
38
38
38
38
38
ENDCHAR
STARTCHAR 012E
ENCODING 302
SWIDTH 225 0
DWIDTH 5 0
BBX 4 20 1 -4
BITMAP
F0
F0
F0
F0
F0
F0
F0
F0
F0
F0
F0
F0
F0
F0
F0
F0
60
C0
70
70
ENDCHAR
STARTCHAR 012F
ENCODING 303
SWIDTH 270 0
DWIDTH 6 0
BBX 4 21 1 -4
BITMAP
70
F0
70
00
00
70
70
70
70
70
70
70
70
70
70
70
70
60
60
70
30
ENDCHAR
STARTCHAR 0130
ENCODING 304
SWIDTH 225 0
DWIDTH 5 0
BBX 4 21 1 0
BITMAP
60
F0
E0
00
00
F0
F0
F0
F0
F0
F0
F0
F0
F0
F0
F0
F0
F0
F0
F0
F0
ENDCHAR
STARTCHAR 0131
ENCODING 305
SWIDTH 270 0
DWIDTH 6 0
BBX 3 12 2 0
BITMAP
E0
E0
E0
E0
E0
E0
E0
E0
E0
E0
E0
E0
ENDCHAR
STARTCHAR 0139
ENCODING 313
SWIDTH 495 0
DWIDTH 11 0
BBX 10 22 1 0
BITMAP
1C00
3800
3800
7000
6000
0000
E000
E000
E000
E000
E000
E000
E000
E000
E000
E000
E000
E000
E000
FFC0
FFC0
FFC0
ENDCHAR
STARTCHAR 013A
ENCODING 314
SWIDTH 315 0
DWIDTH 7 0
BBX 6 23 1 0
BITMAP
1C
38
38
70
60
00
E0
E0
E0
E0
E0
E0
E0
E0
E0
E0
E0
E0
E0
F0
F0
7C
7C
ENDCHAR
STARTCHAR 013D
ENCODING 317
SWIDTH 495 0
DWIDTH 11 0
BBX 12 20 -1 0
BITMAP
EF00
7C00
3800
0000
3800
3800
3800
3800
3800
3800
3800
3800
3800
3800
3800
3800
3800
3FF0
3FF0
3FF0
ENDCHAR
STARTCHAR 013E
ENCODING 318
SWIDTH 405 0
DWIDTH 9 0
BBX 8 18 1 0
BITMAP
07
EF
E7
E1
E1
E3
E4
E0
E0
E0
E0
E0
E0
E0
F0
F0
7C
7C
ENDCHAR
STARTCHAR 0143
ENCODING 323
SWIDTH 675 0
DWIDTH 15 0
BBX 13 22 1 0
BITMAP
00E0
01C0
01C0
0380
0300
0000
F038
F038
F838
FC38
FC38
FE38
EE38
E738
E7B8
E3B8
E3F8
E1F8
E0F8
E0F8
E078
E078
ENDCHAR
STARTCHAR 0144
ENCODING 324
SWIDTH 585 0
DWIDTH 13 0
BBX 11 18 1 0
BITMAP
01C0
0380
0300
0700
0600
0000
E780
EFC0
FFE0
F0E0
E0E0
E0E0
E0E0
E0E0
E0E0
E0E0
E0E0
E0E0
ENDCHAR
STARTCHAR 0147
ENCODING 327
SWIDTH 675 0
DWIDTH 15 0
BBX 13 20 1 0
BITMAP
1DE0
0F80
0700
0000
F038
F038
F838
FC38
FC38
FE38
EE38
E738
E7B8
E3B8
E3F8
E1F8
E0F8
E0F8
E078
E078
ENDCHAR
STARTCHAR 0148
ENCODING 328
SWIDTH 585 0
DWIDTH 13 0
BBX 11 17 1 0
BITMAP
31C0
3B80
1F00
0E00
0000
E780
EFC0
FFE0
F0E0
E0E0
E0E0
E0E0
E0E0
E0E0
E0E0
E0E0
E0E0
ENDCHAR
STARTCHAR 014C
ENCODING 332
SWIDTH 720 0
DWIDTH 16 0
BBX 14 19 1 0
BITMAP
1FE0
0000
0000
0780
1FE0
3FF0
7878
7038
F03C
E01C
E01C
E01C
E01C
E01C
F03C
7878
7FF8
3FF0
0FC0
ENDCHAR
STARTCHAR 014D
ENCODING 333
SWIDTH 585 0
DWIDTH 13 0
BBX 11 15 1 0
BITMAP
3F80
0000
0000
1F00
3F80
7BC0
F1E0
E0E0
E0E0
E0E0
E0E0
E0E0
7BC0
7FC0
1F00
ENDCHAR
STARTCHAR 0152
ENCODING 338
SWIDTH 945 0
DWIDTH 21 0
BBX 20 16 1 0
BITMAP
03FFF0
1FFFF0
3FFFF0
787000
707000
F07000
E07000
E07FC0
E07FC0
E07000
E07000
F07000
787000
7FFFF0
3FFFF0
0FFFF0
ENDCHAR
STARTCHAR 0153
ENCODING 339
SWIDTH 945 0
DWIDTH 21 0
BBX 19 12 1 0
BITMAP
1F1F00
3FBFC0
7FF9C0
F1F0E0
E0E0E0
E0FFE0
E0FFE0
E0E000
E1F0E0
71F9E0
7FBFC0
1F1F80
ENDCHAR
STARTCHAR 0154
ENCODING 340
SWIDTH 585 0
DWIDTH 13 0
BBX 12 22 1 0
BITMAP
03C0
0380
0700
0700
0E00
0000
FE00
FFC0
FFE0
E1E0
E0F0
E070
E0F0
E1E0
FFE0
FFC0
E780
E380
E1C0
E1C0
E0E0
E0F0
ENDCHAR
STARTCHAR 0155
ENCODING 341
SWIDTH 360 0
DWIDTH 8 0
BBX 8 18 1 0
BITMAP
07
0E
0C
1C
18
00
E6
EE
FE
F0
F0
E0
E0
E0
E0
E0
E0
E0
ENDCHAR
STARTCHAR 0158
ENCODING 344
SWIDTH 585 0
DWIDTH 13 0
BBX 12 20 1 0
BITMAP
3B80
1F00
0E00
0000
FE00
FFC0
FFE0
E1E0
E0F0
E070
E0F0
E1E0
FFE0
FFC0
E780
E380
E1C0
E1C0
E0E0
E0F0
ENDCHAR
STARTCHAR 0159
ENCODING 345
SWIDTH 360 0
DWIDTH 8 0
BBX 8 17 1 0
BITMAP
C7
EE
7C
38
00
E6
EE
FE
F0
F0
E0
E0
E0
E0
E0
E0
E0
ENDCHAR
STARTCHAR 015A
ENCODING 346
SWIDTH 585 0
DWIDTH 13 0
BBX 12 22 1 0
BITMAP
01E0
01C0
0380
0380
0700
0000
1F00
3FC0
7FE0
71E0
E0E0
F000
7800
7F80
1FC0
03E0
00F0
E0F0
F0E0
7FE0
7FC0
1F80
ENDCHAR
STARTCHAR 015B
ENCODING 347
SWIDTH 450 0
DWIDTH 10 0
BBX 9 18 1 0
BITMAP
0700
0700
0E00
0C00
0000
0000
3E00
7F00
E780
E380
F000
7E00
3F80
0380
E380
F380
7F80
3E00
ENDCHAR
STARTCHAR 015E
ENCODING 350
SWIDTH 585 0
DWIDTH 13 0
BBX 12 22 1 -6
BITMAP
1F00
3FC0
7FE0
71E0
E0E0
F000
7800
7F80
1FC0
03E0
00F0
E0F0
F0E0
7FE0
7FC0
1F80
0400
0700
0180
0180
0700
0200
ENDCHAR
STARTCHAR 015F
ENCODING 351
SWIDTH 450 0
DWIDTH 10 0
BBX 9 17 1 -6
BITMAP
3E00
7F00
E780
E380
F000
7E00
3F80
0380
E380
F380
7F80
3E00
0800
0E00
0300
0300
0E00
ENDCHAR
STARTCHAR 0160
ENCODING 352
SWIDTH 585 0
DWIDTH 13 0
BBX 12 20 1 0
BITMAP
1DC0
0F80
0700
0000
1F00
3FC0
7FE0
71E0
E0E0
F000
7800
7F80
1FC0
03E0
00F0
E0F0
F0E0
7FE0
7FC0
1F80
ENDCHAR
STARTCHAR 0161
ENCODING 353
SWIDTH 450 0
DWIDTH 10 0
BBX 9 17 1 0
BITMAP
7380
3700
1E00
1C00
0000
3E00
7F00
E780
E380
F000
7E00
3F80
0380
E380
F380
7F80
3E00
ENDCHAR
STARTCHAR 0162
ENCODING 354
SWIDTH 585 0
DWIDTH 13 0
BBX 11 22 1 -6
BITMAP
FFE0
FFE0
FFE0
0E00
0E00
0E00
0E00
0E00
0E00
0E00
0E00
0E00
0E00
0E00
0E00
0E00
0C00
0F00
0100
0100
0F00
0400
ENDCHAR
STARTCHAR 0163
ENCODING 355
SWIDTH 405 0
DWIDTH 9 0
BBX 7 21 1 -5
BITMAP
38
38
38
38
FE
FE
FE
38
38
38
38
38
38
38
3E
1E
18
1E
02
02
1E
ENDCHAR
STARTCHAR 0164
ENCODING 356
SWIDTH 585 0
DWIDTH 13 0
BBX 11 20 1 0
BITMAP
3B80
1F00
0E00
0000
FFE0
FFE0
FFE0
0E00
0E00
0E00
0E00
0E00
0E00
0E00
0E00
0E00
0E00
0E00
0E00
0E00
ENDCHAR
STARTCHAR 0165
ENCODING 357
SWIDTH 540 0
DWIDTH 12 0
BBX 11 18 1 0
BITMAP
00E0
01E0
39E0
3820
3820
3840
FE80
FE00
FE00
3800
3800
3800
3800
3800
3800
3800
3E00
1E00
ENDCHAR
STARTCHAR 0166
ENCODING 358
SWIDTH 585 0
DWIDTH 13 0
BBX 11 16 1 0
BITMAP
FFE0
FFE0
FFE0
0E00
0E00
0E00
0E00
7FC0
7FC0
0E00
0E00
0E00
0E00
0E00
0E00
0E00
ENDCHAR
STARTCHAR 0167
ENCODING 359
SWIDTH 405 0
DWIDTH 9 0
BBX 7 16 1 0
BITMAP
38
38
38
38
FE
FE
FE
38
38
FE
38
38
38
38
3E
1E
ENDCHAR
STARTCHAR 0168
ENCODING 360
SWIDTH 675 0
DWIDTH 15 0
BBX 13 20 1 0
BITMAP
1FC0
1FC0
1800
0000
E038
E038
E038
E038
E038
E038
E038
E038
E038
E038
E038
F078
7070
7FF0
3FE0
1FC0
ENDCHAR
STARTCHAR 0169
ENCODING 361
SWIDTH 585 0
DWIDTH 13 0
BBX 11 17 1 0
BITMAP
1980
3F80
3700
0000
0000
E0E0
E0E0
E0E0
E0E0
E0E0
E0E0
E0E0
E0E0
F0E0
79E0
7EE0
3EE0
ENDCHAR
STARTCHAR 016A
ENCODING 362
SWIDTH 675 0
DWIDTH 15 0
BBX 13 19 1 0
BITMAP
1FC0
0000
0000
E038
E038
E038
E038
E038
E038
E038
E038
E038
E038
E038
F078
7070
7FF0
3FE0
1FC0
ENDCHAR
STARTCHAR 016B
ENCODING 363
SWIDTH 585 0
DWIDTH 13 0
BBX 11 15 1 0
BITMAP
3F80
0000
0000
E0E0
E0E0
E0E0
E0E0
E0E0
E0E0
E0E0
E0E0
F0E0
79E0
7EE0
3EE0
ENDCHAR
STARTCHAR 016E
ENCODING 366
SWIDTH 675 0
DWIDTH 15 0
BBX 13 22 1 0
BITMAP
0200
0700
0C80
0580
0700
0000
E038
E038
E038
E038
E038
E038
E038
E038
E038
E038
E038
F078
7070
7FF0
3FE0
1FC0
ENDCHAR
STARTCHAR 016F
ENCODING 367
SWIDTH 585 0
DWIDTH 13 0
BBX 11 18 1 0
BITMAP
0C00
1E00
1300
1E00
0400
0000
E0E0
E0E0
E0E0
E0E0
E0E0
E0E0
E0E0
E0E0
F0E0
79E0
7EE0
3EE0
ENDCHAR
STARTCHAR 0172
ENCODING 370
SWIDTH 675 0
DWIDTH 15 0
BBX 13 20 1 -4
BITMAP
E038
E038
E038
E038
E038
E038
E038
E038
E038
E038
E038
F078
7070
7FF0
3FE0
1FC0
0600
0600
0780
0380
ENDCHAR
STARTCHAR 0173
ENCODING 371
SWIDTH 585 0
DWIDTH 13 0
BBX 12 16 1 -4
BITMAP
E0E0
E0E0
E0E0
E0E0
E0E0
E0E0
E0E0
E0E0
F0E0
79E0
7EE0
3EE0
00C0
00C0
00F0
0070
ENDCHAR
STARTCHAR 0174
ENCODING 372
SWIDTH 990 0
DWIDTH 22 0
BBX 22 20 0 0
BITMAP
007800
00FC00
01CE00
000000
E0301C
70781C
707838
707838
70FC38
38FC38
38FC70
38EE70
39CE70
19CE70
1DC6E0
1F87E0
1F87E0
0F87E0
0F03C0
0F03C0
ENDCHAR
STARTCHAR 0175
ENCODING 373
SWIDTH 810 0
DWIDTH 18 0
BBX 18 17 0 0
BITMAP
00C000
01E000
03F000
073800
000000
E0E1C0
71E1C0
71E380
71E380
31F380
3BF380
3BB300
3B3F00
1F3F00
1F3E00
1F1E00
1E1E00
ENDCHAR
STARTCHAR 0176
ENCODING 374
SWIDTH 630 0
DWIDTH 14 0
BBX 13 20 1 0
BITMAP
0F00
1F80
39C0
0000
E038
E070
7070
70E0
38E0
39C0
1DC0
1F80
0F80
0F00
0700
0700
0700
0700
0700
0700
ENDCHAR
STARTCHAR 0177
ENCODING 375
SWIDTH 540 0
DWIDTH 12 0
BBX 11 22 1 -5
BITMAP
0C00
1E00
3F00
7380
0000
E0E0
E1E0
E1C0
71C0
7180
7380
3B80
3B00
3F00
1E00
1E00
0E00
1C00
1C00
3800
F800
F000
ENDCHAR
STARTCHAR 0178
ENCODING 376
SWIDTH 630 0
DWIDTH 14 0
BBX 13 21 1 0
BITMAP
38C0
39E0
38E0
0000
0000
E038
E070
7070
70E0
38E0
39C0
1DC0
1F80
0F80
0F00
0700
0700
0700
0700
0700
0700
ENDCHAR
STARTCHAR 0179
ENCODING 377
SWIDTH 585 0
DWIDTH 13 0
BBX 12 22 1 0
BITMAP
01C0
0380
0380
0700
0600
0000
FFF0
FFF0
FFF0
00E0
01E0
03C0
0780
0700
0E00
1E00
3C00
7800
7000
FFF0
FFF0
FFF0
ENDCHAR
STARTCHAR 017A
ENCODING 378
SWIDTH 495 0
DWIDTH 11 0
BBX 9 18 1 0
BITMAP
0380
0700
0600
0E00
0C00
0000
FF80
FF80
FF80
0700
0F00
0E00
1C00
3800
7000
E000
FF80
FF80
ENDCHAR
STARTCHAR 017B
ENCODING 379
SWIDTH 585 0
DWIDTH 13 0
BBX 12 21 1 0
BITMAP
0600
0F00
0E00
0000
0000
FFF0
FFF0
FFF0
00E0
01E0
03C0
0780
0700
0E00
1E00
3C00
7800
7000
FFF0
FFF0
FFF0
ENDCHAR
STARTCHAR 017C
ENCODING 380
SWIDTH 495 0
DWIDTH 11 0
BBX 9 17 1 0
BITMAP
1C00
1C00
1C00
0000
0000
FF80
FF80
FF80
0700
0F00
0E00
1C00
3800
7000
E000
FF80
FF80
ENDCHAR
STARTCHAR 017D
ENCODING 381
SWIDTH 585 0
DWIDTH 13 0
BBX 12 20 1 0
BITMAP
39C0
1F00
0F00
0000
FFF0
FFF0
FFF0
00E0
01E0
03C0
0780
0700
0E00
1E00
3C00
7800
7000
FFF0
FFF0
FFF0
ENDCHAR
STARTCHAR 017E
ENCODING 382
SWIDTH 495 0
DWIDTH 11 0
BBX 9 17 1 0
BITMAP
6380
7700
3E00
1C00
0000
FF80
FF80
FF80
0700
0F00
0E00
1C00
3800
7000
E000
FF80
FF80
ENDCHAR
STARTCHAR 01A0
ENCODING 416
SWIDTH 720 0
DWIDTH 16 0
BBX 14 18 1 0
BITMAP
001C
001C
07F8
1FF0
3FF0
7878
7038
F03C
E01C
E01C
E01C
E01C
E01C
F03C
7878
7FF8
3FF0
0FC0
ENDCHAR
STARTCHAR 01A1
ENCODING 417
SWIDTH 585 0
DWIDTH 13 0
BBX 12 14 1 0
BITMAP
0070
0070
1FE0
3FC0
7BC0
F1E0
E0E0
E0E0
E0E0
E0E0
E0E0
7BC0
7FC0
1F00
ENDCHAR
STARTCHAR 01AF
ENCODING 431
SWIDTH 675 0
DWIDTH 15 0
BBX 15 18 1 0
BITMAP
0006
0006
E03E
E03C
E038
E038
E038
E038
E038
E038
E038
E038
E038
F078
7070
7FF0
3FE0
1FC0
ENDCHAR
STARTCHAR 01B0
ENCODING 432
SWIDTH 585 0
DWIDTH 13 0
BBX 14 14 1 0
BITMAP
001C
001C
E0F8
E0F0
E0E0
E0E0
E0E0
E0E0
E0E0
E0E0
F0E0
79E0
7EE0
3EE0
ENDCHAR
STARTCHAR 02C6
ENCODING 710
SWIDTH 450 0
DWIDTH 10 0
BBX 8 4 1 13
BITMAP
18
3C
7E
E7
ENDCHAR
STARTCHAR 02C7
ENCODING 711
SWIDTH 405 0
DWIDTH 9 0
BBX 8 4 1 13
BITMAP
E7
6E
3C
18
ENDCHAR
STARTCHAR 02D8
ENCODING 728
SWIDTH 405 0
DWIDTH 9 0
BBX 8 3 1 13
BITMAP
E7
7E
18
ENDCHAR
STARTCHAR 02D9
ENCODING 729
SWIDTH 180 0
DWIDTH 4 0
BBX 3 3 1 14
BITMAP
E0
E0
E0
ENDCHAR
STARTCHAR 02DA
ENCODING 730
SWIDTH 225 0
DWIDTH 5 0
BBX 4 5 1 13
BITMAP
60
F0
90
F0
60
ENDCHAR
STARTCHAR 02DB
ENCODING 731
SWIDTH 225 0
DWIDTH 5 0
BBX 4 5 1 -5
BITMAP
40
C0
C0
F0
70
ENDCHAR
STARTCHAR 02DC
ENCODING 732
SWIDTH 360 0
DWIDTH 8 0
BBX 7 3 1 14
BITMAP
66
FE
DE
ENDCHAR
STARTCHAR 0300
ENCODING 768
SWIDTH 0 0
DWIDTH 0 0
BBX 4 4 -5 14
BITMAP
E0
E0
70
30
ENDCHAR
STARTCHAR 0301
ENCODING 769
SWIDTH 0 0
DWIDTH 0 0
BBX 5 4 -5 14
BITMAP
38
70
70
E0
ENDCHAR
STARTCHAR 0302
ENCODING 770
SWIDTH 0 0
DWIDTH 0 0
BBX 8 4 -8 13
BITMAP
18
3C
6E
E7
ENDCHAR
STARTCHAR 0303
ENCODING 771
SWIDTH 0 0
DWIDTH 0 0
BBX 7 3 -8 14
BITMAP
22
7E
DE
ENDCHAR
STARTCHAR 0304
ENCODING 772
SWIDTH 0 0
DWIDTH 0 0
BBX 7 2 -9 14
BITMAP
FE
FE
ENDCHAR
STARTCHAR 0306
ENCODING 774
SWIDTH 0 0
DWIDTH 0 0
BBX 7 3 -8 13
BITMAP
C6
7E
38
ENDCHAR
STARTCHAR 0307
ENCODING 775
SWIDTH 0 0
DWIDTH 0 0
BBX 4 3 -5 14
BITMAP
60
F0
60
ENDCHAR
STARTCHAR 0308
ENCODING 776
SWIDTH 0 0
DWIDTH 0 0
BBX 9 3 -10 14
BITMAP
E300
E780
E300
ENDCHAR
STARTCHAR 0309
ENCODING 777
SWIDTH 0 0
DWIDTH 0 0
BBX 5 4 -6 14
BITMAP
F8
D8
18
38
ENDCHAR
STARTCHAR 030A
ENCODING 778
SWIDTH 0 0
DWIDTH 0 0
BBX 5 5 -6 13
BITMAP
30
78
C8
78
20
ENDCHAR
STARTCHAR 030C
ENCODING 780
SWIDTH 0 0
DWIDTH 0 0
BBX 8 4 -9 13
BITMAP
E7
6E
3C
38
ENDCHAR
STARTCHAR 031B
ENCODING 795
SWIDTH 0 0
DWIDTH 0 0
BBX 5 4 -5 13
BITMAP
38
30
F0
C0
ENDCHAR
STARTCHAR 0323
ENCODING 803
SWIDTH 0 0
DWIDTH 0 0
BBX 3 3 -3 -5
BITMAP
C0
E0
E0
ENDCHAR
STARTCHAR 0327
ENCODING 807
SWIDTH 0 0
DWIDTH 0 0
BBX 4 6 -5 -6
BITMAP
C0
F0
10
10
F0
40
ENDCHAR
STARTCHAR 0328
ENCODING 808
SWIDTH 0 0
DWIDTH 0 0
BBX 4 5 -5 -5
BITMAP
60
C0
C0
F0
30
ENDCHAR
STARTCHAR 1E80
ENCODING 7808
SWIDTH 990 0
DWIDTH 22 0
BBX 22 22 0 0
BITMAP
01C000
00E000
00E000
007000
003000
000000
E0301C
70781C
707838
707838
70FC38
38FC38
38FC70
38EE70
39CE70
19CE70
1DC6E0
1F87E0
1F87E0
0F87E0
0F03C0
0F03C0
ENDCHAR
STARTCHAR 1E81
ENCODING 7809
SWIDTH 810 0
DWIDTH 18 0
BBX 18 18 0 0
BITMAP
070000
038000
018000
01C000
00C000
000000
E0E1C0
71E1C0
71E380
71E380
31F380
3BF380
3BB300
3B3F00
1F3F00
1F3E00
1F1E00
1E1E00
ENDCHAR
STARTCHAR 1E82
ENCODING 7810
SWIDTH 990 0
DWIDTH 22 0
BBX 22 22 0 0
BITMAP
000E00
000C00
001C00
001800
003000
000000
E0301C
70781C
707838
707838
70FC38
38FC38
38FC70
38EE70
39CE70
19CE70
1DC6E0
1F87E0
1F87E0
0F87E0
0F03C0
0F03C0
ENDCHAR
STARTCHAR 1E83
ENCODING 7811
SWIDTH 810 0
DWIDTH 18 0
BBX 18 18 0 0
BITMAP
003800
003000
007000
006000
00C000
000000
E0E1C0
71E1C0
71E380
71E380
31F380
3BF380
3BB300
3B3F00
1F3F00
1F3E00
1F1E00
1E1E00
ENDCHAR
STARTCHAR 1E84
ENCODING 7812
SWIDTH 990 0
DWIDTH 22 0
BBX 22 21 0 0
BITMAP
01C600
01CF00
01CF00
000000
000000
E0301C
70781C
707838
707838
70FC38
38FC38
38FC70
38EE70
39CE70
19CE70
1DC6E0
1F87E0
1F87E0
0F87E0
0F03C0
0F03C0
ENDCHAR
STARTCHAR 1E85
ENCODING 7813
SWIDTH 810 0
DWIDTH 18 0
BBX 18 17 0 0
BITMAP
071800
073C00
071C00
000000
000000
E0E1C0
71E1C0
71E380
71E380
31F380
3BF380
3BB300
3B3F00
1F3F00
1F3E00
1F1E00
1E1E00
ENDCHAR
STARTCHAR 1EA0
ENCODING 7840
SWIDTH 675 0
DWIDTH 15 0
BBX 13 21 1 -5
BITMAP
0700
0700
0F80
0F80
0D80
1DC0
1DC0
18E0
38E0
38E0
7FF0
7FF0
7070
E038
E038
E038
0000
0000
0300
0700
0700
ENDCHAR
STARTCHAR 1EA1
ENCODING 7841
SWIDTH 585 0
DWIDTH 13 0
BBX 11 17 1 -5
BITMAP
3EE0
7FE0
7BE0
F0E0
E0E0
E0E0
E0E0
E0E0
F0E0
F9E0
7FE0
3EE0
0000
0000
0600
0E00
0E00
ENDCHAR
STARTCHAR 1EA2
ENCODING 7842
SWIDTH 675 0
DWIDTH 15 0
BBX 13 22 1 0
BITMAP
0700
0F80
0D80
0180
0700
0000
0700
0700
0F80
0F80
0D80
1DC0
1DC0
18E0
38E0
38E0
7FF0
7FF0
7070
E038
E038
E038
ENDCHAR
STARTCHAR 1EA3
ENCODING 7843
SWIDTH 585 0
DWIDTH 13 0
BBX 11 18 1 0
BITMAP
0F00
1F00
0180
0300
0600
0000
3EE0
7FE0
7BE0
F0E0
E0E0
E0E0
E0E0
E0E0
F0E0
F9E0
7FE0
3EE0
ENDCHAR
STARTCHAR 1EA4
ENCODING 7844
SWIDTH 675 0
DWIDTH 15 0
BBX 14 24 1 0
BITMAP
001C
001C
0038
0030
0780
0D80
18C0
0000
0700
0700
0F80
0F80
0D80
1DC0
1DC0
18E0
38E0
38E0
7FF0
7FF0
7070
E038
E038
E038
ENDCHAR
STARTCHAR 1EA5
ENCODING 7845
SWIDTH 585 0
DWIDTH 13 0
BBX 14 20 1 0
BITMAP
001C
0038
0030
0670
0F00
1F80
39C0
0000
3EE0
7FE0
7BE0
F0E0
E0E0
E0E0
E0E0
E0E0
F0E0
F9E0
7FE0
3EE0
ENDCHAR
STARTCHAR 1EA6
ENCODING 7846
SWIDTH 675 0
DWIDTH 15 0
BBX 13 24 1 0
BITMAP
01C0
00E0
0060
0070
0780
0D80
18C0
0000
0700
0700
0F80
0F80
0D80
1DC0
1DC0
18E0
38E0
38E0
7FF0
7FF0
7070
E038
E038
E038
ENDCHAR
STARTCHAR 1EA7
ENCODING 7847
SWIDTH 585 0
DWIDTH 13 0
BBX 11 20 1 0
BITMAP
01C0
01C0
00E0
0660
0F00
1F80
39C0
0000
3EE0
7FE0
7BE0
F0E0
E0E0
E0E0
E0E0
E0E0
F0E0
F9E0
7FE0
3EE0
ENDCHAR
STARTCHAR 1EA8
ENCODING 7848
SWIDTH 675 0
DWIDTH 15 0
BBX 13 25 1 0
BITMAP
0030
00F8
00D8
0018
0030
0780
0D80
18C0
0000
0700
0700
0F80
0F80
0D80
1DC0
1DC0
18E0
38E0
38E0
7FF0
7FF0
7070
E038
E038
E038
ENDCHAR
STARTCHAR 1EA9
ENCODING 7849
SWIDTH 585 0
DWIDTH 13 0
BBX 13 21 1 0
BITMAP
00F0
01F8
0198
0030
0660
0F00
1F80
39C0
0000
3EE0
7FE0
7BE0
F0E0
E0E0
E0E0
E0E0
E0E0
F0E0
F9E0
7FE0
3EE0
ENDCHAR
STARTCHAR 1EAA
ENCODING 7850
SWIDTH 675 0
DWIDTH 15 0
BBX 13 24 1 0
BITMAP
1EC0
1FC0
1980
0000
0F80
0D80
18C0
0000
0700
0700
0F80
0F80
0D80
1DC0
1DC0
18E0
38E0
38E0
7FF0
7FF0
7070
E038
E038
E038
ENDCHAR
STARTCHAR 1EAB
ENCODING 7851
SWIDTH 585 0
DWIDTH 13 0
BBX 11 21 1 0
BITMAP
0080
1F80
3780
0000
0600
0F00
1B80
39C0
0000
3EE0
7FE0
7BE0
F0E0
E0E0
E0E0
E0E0
E0E0
F0E0
F9E0
7FE0
3EE0
ENDCHAR
STARTCHAR 1EAC
ENCODING 7852
SWIDTH 675 0
DWIDTH 15 0
BBX 13 25 1 -5
BITMAP
0780
0D80
18C0
0000
0700
0700
0F80
0F80
0D80
1DC0
1DC0
18E0
38E0
38E0
7FF0
7FF0
7070
E038
E038
E038
0000
0000
0300
0700
0700
ENDCHAR
STARTCHAR 1EAD
ENCODING 7853
SWIDTH 585 0
DWIDTH 13 0
BBX 11 22 1 -5
BITMAP
0600
0F00
1F80
39C0
0000
3EE0
7FE0
7BE0
F0E0
E0E0
E0E0
E0E0
E0E0
F0E0
F9E0
7FE0
3EE0
0000
0000
0600
0E00
0E00
ENDCHAR
STARTCHAR 1EAE
ENCODING 7854
SWIDTH 675 0
DWIDTH 15 0
BBX 13 25 1 0
BITMAP
01C0
0180
0380
0300
0000
18C0
1FC0
0700
0000
0700
0700
0F80
0F80
0D80
1DC0
1DC0
18E0
38E0
38E0
7FF0
7FF0
7070
E038
E038
E038
ENDCHAR
STARTCHAR 1EAF
ENCODING 7855
SWIDTH 585 0
DWIDTH 13 0
BBX 11 21 1 0
BITMAP
0380
0380
0700
0600
0000
39C0
1F80
0600
0000
3EE0
7FE0
7BE0
F0E0
E0E0
E0E0
E0E0
E0E0
F0E0
F9E0
7FE0
3EE0
ENDCHAR
STARTCHAR 1EB0
ENCODING 7856
SWIDTH 675 0
DWIDTH 15 0
BBX 13 25 1 0
BITMAP
1C00
0C00
0E00
0600
0000
18C0
1FC0
0700
0000
0700
0700
0F80
0F80
0D80
1DC0
1DC0
18E0
38E0
38E0
7FF0
7FF0
7070
E038
E038
E038
ENDCHAR
STARTCHAR 1EB1
ENCODING 7857
SWIDTH 585 0
DWIDTH 13 0
BBX 11 21 1 0
BITMAP
3800
1C00
0C00
0E00
0000
39C0
1F80
0600
0000
3EE0
7FE0
7BE0
F0E0
E0E0
E0E0
E0E0
E0E0
F0E0
F9E0
7FE0
3EE0
ENDCHAR
STARTCHAR 1EB2
ENCODING 7858
SWIDTH 675 0
DWIDTH 15 0
BBX 13 25 1 0
BITMAP
0F80
0D80
0180
0300
0000
18C0
1FC0
0700
0000
0700
0700
0F80
0F80
0D80
1DC0
1DC0
18E0
38E0
38E0
7FF0
7FF0
7070
E038
E038
E038
ENDCHAR
STARTCHAR 1EB3
ENCODING 7859
SWIDTH 585 0
DWIDTH 13 0
BBX 11 22 1 0
BITMAP
0600
1F00
1980
0300
0600
0000
39C0
1F80
0600
0000
3EE0
7FE0
7BE0
F0E0
E0E0
E0E0
E0E0
E0E0
F0E0
F9E0
7FE0
3EE0
ENDCHAR
STARTCHAR 1EB4
ENCODING 7860
SWIDTH 675 0
DWIDTH 15 0
BBX 13 24 1 0
BITMAP
0EC0
1FC0
1980
0000
18C0
1FC0
0700
0000
0700
0700
0F80
0F80
0D80
1DC0
1DC0
18E0
38E0
38E0
7FF0
7FF0
7070
E038
E038
E038
ENDCHAR
STARTCHAR 1EB5
ENCODING 7861
SWIDTH 585 0
DWIDTH 13 0
BBX 11 20 1 0
BITMAP
1E80
3F80
3300
0000
39C0
1F80
0600
0000
3EE0
7FE0
7BE0
F0E0
E0E0
E0E0
E0E0
E0E0
F0E0
F9E0
7FE0
3EE0
ENDCHAR
STARTCHAR 1EB6
ENCODING 7862
SWIDTH 675 0
DWIDTH 15 0
BBX 13 25 1 -5
BITMAP
18C0
1FC0
0700
0000
0700
0700
0F80
0F80
0D80
1DC0
1DC0
18E0
38E0
38E0
7FF0
7FF0
7070
E038
E038
E038
0000
0000
0300
0700
0700
ENDCHAR
STARTCHAR 1EB7
ENCODING 7863
SWIDTH 585 0
DWIDTH 13 0
BBX 11 21 1 -5
BITMAP
39C0
1F80
0600
0000
3EE0
7FE0
7BE0
F0E0
E0E0
E0E0
E0E0
E0E0
F0E0
F9E0
7FE0
3EE0
0000
0000
0600
0E00
0E00
ENDCHAR
STARTCHAR 1EB8
ENCODING 7864
SWIDTH 540 0
DWIDTH 12 0
BBX 11 21 1 -5
BITMAP
FFE0
FFE0
FFE0
E000
E000
E000
E000
FF80
FF80
E000
E000
E000
E000
FFE0
FFE0
FFE0
0000
0000
0C00
0E00
0E00
ENDCHAR
STARTCHAR 1EB9
ENCODING 7865
SWIDTH 540 0
DWIDTH 12 0
BBX 11 17 1 -5
BITMAP
1F00
3F80
71C0
E0E0
E0E0
FFE0
FFE0
E000
E0E0
71C0
7FC0
1F00
0000
0000
0600
0E00
0E00
ENDCHAR
STARTCHAR 1EBA
ENCODING 7866
SWIDTH 540 0
DWIDTH 12 0
BBX 11 22 1 0
BITMAP
0E00
1F00
3B00
0300
0E00
0000
FFE0
FFE0
FFE0
E000
E000
E000
E000
FF80
FF80
E000
E000
E000
E000
FFE0
FFE0
FFE0
ENDCHAR
STARTCHAR 1EBB
ENCODING 7867
SWIDTH 540 0
DWIDTH 12 0
BBX 11 18 1 0
BITMAP
0E00
1F00
0300
0300
0E00
0000
1F00
3F80
71C0
E0E0
E0E0
FFE0
FFE0
E000
E0E0
71C0
7FC0
1F00
ENDCHAR
STARTCHAR 1EBC
ENCODING 7868
SWIDTH 540 0
DWIDTH 12 0
BBX 11 20 1 0
BITMAP
3F80
3F80
2000
0000
FFE0
FFE0
FFE0
E000
E000
E000
E000
FF80
FF80
E000
E000
E000
E000
FFE0
FFE0
FFE0
ENDCHAR
STARTCHAR 1EBD
ENCODING 7869
SWIDTH 540 0
DWIDTH 12 0
BBX 11 17 1 0
BITMAP
1980
3F80
3780
0000
0000
1F00
3F80
71C0
E0E0
E0E0
FFE0
FFE0
E000
E0E0
71C0
7FC0
1F00
ENDCHAR
STARTCHAR 1EBE
ENCODING 7870
SWIDTH 540 0
DWIDTH 12 0
BBX 13 24 1 0
BITMAP
0038
0030
0070
0060
1E00
3B00
3380
0000
FFE0
FFE0
FFE0
E000
E000
E000
E000
FF80
FF80
E000
E000
E000
E000
FFE0
FFE0
FFE0
ENDCHAR
STARTCHAR 1EBF
ENCODING 7871
SWIDTH 540 0
DWIDTH 12 0
BBX 13 20 1 0
BITMAP
0038
0038
0070
0E60
1F00
3B80
31C0
0000
1F00
3F80
71C0
E0E0
E0E0
FFE0
FFE0
E000
E0E0
71C0
7FC0
1F00
ENDCHAR
STARTCHAR 1EC0
ENCODING 7872
SWIDTH 540 0
DWIDTH 12 0
BBX 11 24 1 0
BITMAP
0380
01C0
00C0
00E0
1E00
3B00
3380
0000
FFE0
FFE0
FFE0
E000
E000
E000
E000
FF80
FF80
E000
E000
E000
E000
FFE0
FFE0
FFE0
ENDCHAR
STARTCHAR 1EC1
ENCODING 7873
SWIDTH 540 0
DWIDTH 12 0
BBX 11 20 1 0
BITMAP
0380
01C0
00C0
0EE0
1F00
3B80
31C0
0000
1F00
3F80
71C0
E0E0
E0E0
FFE0
FFE0
E000
E0E0
71C0
7FC0
1F00
ENDCHAR
STARTCHAR 1EC2
ENCODING 7874
SWIDTH 540 0
DWIDTH 12 0
BBX 12 25 1 0
BITMAP
00E0
01F0
01B0
0030
0060
1E00
3B00
3380
0000
FFE0
FFE0
FFE0
E000
E000
E000
E000
FF80
FF80
E000
E000
E000
E000
FFE0
FFE0
FFE0
ENDCHAR
STARTCHAR 1EC3
ENCODING 7875
SWIDTH 540 0
DWIDTH 12 0
BBX 12 21 1 0
BITMAP
00E0
01F0
01B0
0030
0E60
1F00
3B80
31C0
0000
1F00
3F80
71C0
E0E0
E0E0
FFE0
FFE0
E000
E0E0
71C0
7FC0
1F00
ENDCHAR
STARTCHAR 1EC4
ENCODING 7876
SWIDTH 540 0
DWIDTH 12 0
BBX 11 24 1 0
BITMAP
3D80
3F80
2200
0000
1E00
3F00
3380
0000
FFE0
FFE0
FFE0
E000
E000
E000
E000
FF80
FF80
E000
E000
E000
E000
FFE0
FFE0
FFE0
ENDCHAR
STARTCHAR 1EC5
ENCODING 7877
SWIDTH 540 0
DWIDTH 12 0
BBX 11 21 1 0
BITMAP
0180
3F80
3F80
0000
0E00
1F00
3B80
31C0
0000
1F00
3F80
71C0
E0E0
E0E0
FFE0
FFE0
E000
E0E0
71C0
7FC0
1F00
ENDCHAR
STARTCHAR 1EC6
ENCODING 7878
SWIDTH 540 0
DWIDTH 12 0
BBX 11 25 1 -5
BITMAP
1E00
3B00
3380
0000
FFE0
FFE0
FFE0
E000
E000
E000
E000
FF80
FF80
E000
E000
E000
E000
FFE0
FFE0
FFE0
0000
0000
0C00
0E00
0E00
ENDCHAR
STARTCHAR 1EC7
ENCODING 7879
SWIDTH 540 0
DWIDTH 12 0
BBX 11 22 1 -5
BITMAP
0E00
1F00
3B80
31C0
0000
1F00
3F80
71C0
E0E0
E0E0
FFE0
FFE0
E000
E0E0
71C0
7FC0
1F00
0000
0000
0600
0E00
0E00
ENDCHAR
STARTCHAR 1EC8
ENCODING 7880
SWIDTH 225 0
DWIDTH 5 0
BBX 6 22 0 0
BITMAP
78
FC
CC
18
30
00
78
78
78
78
78
78
78
78
78
78
78
78
78
78
78
78
ENDCHAR
STARTCHAR 1EC9
ENCODING 7881
SWIDTH 270 0
DWIDTH 6 0
BBX 6 18 0 0
BITMAP
78
FC
0C
18
30
00
38
38
38
38
38
38
38
38
38
38
38
38
ENDCHAR
STARTCHAR 1ECA
ENCODING 7882
SWIDTH 225 0
DWIDTH 5 0
BBX 4 21 1 -5
BITMAP
F0
F0
F0
F0
F0
F0
F0
F0
F0
F0
F0
F0
F0
F0
F0
F0
00
00
60
F0
60
ENDCHAR
STARTCHAR 1ECB
ENCODING 7883
SWIDTH 270 0
DWIDTH 6 0
BBX 4 22 1 -5
BITMAP
70
F0
70
00
00
70
70
70
70
70
70
70
70
70
70
70
70
00
00
60
70
70
ENDCHAR
STARTCHAR 1ECC
ENCODING 7884
SWIDTH 720 0
DWIDTH 16 0
BBX 14 21 1 -5
BITMAP
0780
1FE0
3FF0
7878
7038
F03C
E01C
E01C
E01C
E01C
E01C
F03C
7878
7FF8
3FF0
0FC0
0000
0000
0300
0780
0380
ENDCHAR
STARTCHAR 1ECD
ENCODING 7885
SWIDTH 585 0
DWIDTH 13 0
BBX 11 17 1 -5
BITMAP
1F00
3F80
7BC0
F1E0
E0E0
E0E0
E0E0
E0E0
E0E0
7BC0
7FC0
1F00
0000
0000
0600
0E00
0E00
ENDCHAR
STARTCHAR 1ECE
ENCODING 7886
SWIDTH 720 0
DWIDTH 16 0
BBX 14 22 1 0
BITMAP
0780
0FC0
0CC0
0180
0300
0000
0780
1FE0
3FF0
7878
7038
F03C
E01C
E01C
E01C
E01C
E01C
F03C
7878
7FF8
3FF0
0FC0
ENDCHAR
STARTCHAR 1ECF
ENCODING 7887
SWIDTH 585 0
DWIDTH 13 0
BBX 11 18 1 0
BITMAP
0E00
1F00
0300
0700
0E00
0000
1F00
3F80
7BC0
F1E0
E0E0
E0E0
E0E0
E0E0
E0E0
7BC0
7FC0
1F00
ENDCHAR
STARTCHAR 1ED0
ENCODING 7888
SWIDTH 720 0
DWIDTH 16 0
BBX 15 24 1 0
BITMAP
000E
001C
001C
0038
0780
0FC0
1CE0
0000
0780
1FE0
3FF0
7878
7038
F03C
E01C
E01C
E01C
E01C
E01C
F03C
7878
7FF8
3FF0
0FC0
ENDCHAR
STARTCHAR 1ED1
ENCODING 7889
SWIDTH 585 0
DWIDTH 13 0
BBX 13 20 1 0
BITMAP
0038
0038
0070
0E60
1F00
3B80
31C0
0000
1F00
3F80
7BC0
F1E0
E0E0
E0E0
E0E0
E0E0
E0E0
7BC0
7FC0
1F00
ENDCHAR
STARTCHAR 1ED2
ENCODING 7890
SWIDTH 720 0
DWIDTH 16 0
BBX 14 24 1 0
BITMAP
00E0
0060
0070
0030
0780
0FC0
1CE0
0000
0780
1FE0
3FF0
7878
7038
F03C
E01C
E01C
E01C
E01C
E01C
F03C
7878
7FF8
3FF0
0FC0
ENDCHAR
STARTCHAR 1ED3
ENCODING 7891
SWIDTH 585 0
DWIDTH 13 0
BBX 11 20 1 0
BITMAP
0380
01C0
00C0
0EE0
1F00
3B80
31C0
0000
1F00
3F80
7BC0
F1E0
E0E0
E0E0
E0E0
E0E0
E0E0
7BC0
7FC0
1F00
ENDCHAR
STARTCHAR 1ED4
ENCODING 7892
SWIDTH 720 0
DWIDTH 16 0
BBX 14 25 1 0
BITMAP
0030
007C
00EC
000C
0038
0780
0FC0
1CE0
0000
0780
1FE0
3FF0
7878
7038
F03C
E01C
E01C
E01C
E01C
E01C
F03C
7878
7FF8
3FF0
0FC0
ENDCHAR
STARTCHAR 1ED5
ENCODING 7893
SWIDTH 585 0
DWIDTH 13 0
BBX 12 21 1 0
BITMAP
00E0
01F0
01B0
0030
0E60
1F00
3B80
31C0
0000
1F00
3F80
7BC0
F1E0
E0E0
E0E0
E0E0
E0E0
E0E0
7BC0
7FC0
1F00
ENDCHAR
STARTCHAR 1ED6
ENCODING 7894
SWIDTH 720 0
DWIDTH 16 0
BBX 14 24 1 0
BITMAP
0F60
0FC0
1880
0000
0780
0FC0
1CE0
0000
0780
1FE0
3FF0
7878
7038
F03C
E01C
E01C
E01C
E01C
E01C
F03C
7878
7FF8
3FF0
0FC0
ENDCHAR
STARTCHAR 1ED7
ENCODING 7895
SWIDTH 585 0
DWIDTH 13 0
BBX 11 21 1 0
BITMAP
0180
3F80
3F80
0000
0E00
1F00
3B80
71C0
0000
1F00
3F80
7BC0
F1E0
E0E0
E0E0
E0E0
E0E0
E0E0
7BC0
7FC0
1F00
ENDCHAR
STARTCHAR 1ED8
ENCODING 7896
SWIDTH 720 0
DWIDTH 16 0
BBX 14 25 1 -5
BITMAP
0780
0FC0
1CE0
0000
0780
1FE0
3FF0
7878
7038
F03C
E01C
E01C
E01C
E01C
E01C
F03C
7878
7FF8
3FF0
0FC0
0000
0000
0300
0780
0380
ENDCHAR
STARTCHAR 1ED9
ENCODING 7897
SWIDTH 585 0
DWIDTH 13 0
BBX 11 22 1 -5
BITMAP
0E00
1F00
3B80
31C0
0000
1F00
3F80
7BC0
F1E0
E0E0
E0E0
E0E0
E0E0
E0E0
7BC0
7FC0
1F00
0000
0000
0600
0E00
0E00
ENDCHAR
STARTCHAR 1EDA
ENCODING 7898
SWIDTH 720 0
DWIDTH 16 0
BBX 14 22 1 0
BITMAP
00E0
00C0
01C0
0180
031C
001C
07F8
1FF0
3FF0
7878
7038
F03C
E01C
E01C
E01C
E01C
E01C
F03C
7878
7FF8
3FF0
0FC0
ENDCHAR
STARTCHAR 1EDB
ENCODING 7899
SWIDTH 585 0
DWIDTH 13 0
BBX 12 18 1 0
BITMAP
0380
0380
0700
0600
0E70
0070
1FE0
3FC0
7BC0
F1E0
E0E0
E0E0
E0E0
E0E0
E0E0
7BC0
7FC0
1F00
ENDCHAR
STARTCHAR 1EDC
ENCODING 7900
SWIDTH 720 0
DWIDTH 16 0
BBX 14 22 1 0
BITMAP
1C00
0E00
0E00
0700
031C
001C
07F8
1FF0
3FF0
7878
7038
F03C
E01C
E01C
E01C
E01C
E01C
F03C
7878
7FF8
3FF0
0FC0
ENDCHAR
STARTCHAR 1EDD
ENCODING 7901
SWIDTH 585 0
DWIDTH 13 0
BBX 12 18 1 0
BITMAP
3800
3800
1C00
0C00
0E70
0070
1FE0
3FC0
7BC0
F1E0
E0E0
E0E0
E0E0
E0E0
E0E0
7BC0
7FC0
1F00
ENDCHAR
STARTCHAR 1EDE
ENCODING 7902
SWIDTH 720 0
DWIDTH 16 0
BBX 14 22 1 0
BITMAP
0780
0FC0
0CC0
0180
031C
001C
07F8
1FF0
3FF0
7878
7038
F03C
E01C
E01C
E01C
E01C
E01C
F03C
7878
7FF8
3FF0
0FC0
ENDCHAR
STARTCHAR 1EDF
ENCODING 7903
SWIDTH 585 0
DWIDTH 13 0
BBX 12 18 1 0
BITMAP
0E00
1F00
0300
0700
0E70
0070
1FE0
3FC0
7BC0
F1E0
E0E0
E0E0
E0E0
E0E0
E0E0
7BC0
7FC0
1F00
ENDCHAR
STARTCHAR 1EE0
ENCODING 7904
SWIDTH 720 0
DWIDTH 16 0
BBX 14 20 1 0
BITMAP
0F60
0FC0
081C
001C
07F8
1FF0
3FF0
7878
7038
F03C
E01C
E01C
E01C
E01C
E01C
F03C
7878
7FF8
3FF0
0FC0
ENDCHAR
STARTCHAR 1EE1
ENCODING 7905
SWIDTH 585 0
DWIDTH 13 0
BBX 12 17 1 0
BITMAP
1980
3F80
3780
0070
0070
1FE0
3FC0
7BC0
F1E0
E0E0
E0E0
E0E0
E0E0
E0E0
7BC0
7FC0
1F00
ENDCHAR
STARTCHAR 1EE2
ENCODING 7906
SWIDTH 720 0
DWIDTH 16 0
BBX 14 23 1 -5
BITMAP
001C
001C
07F8
1FF0
3FF0
7878
7038
F03C
E01C
E01C
E01C
E01C
E01C
F03C
7878
7FF8
3FF0
0FC0
0000
0000
0300
0780
0380
ENDCHAR
STARTCHAR 1EE3
ENCODING 7907
SWIDTH 585 0
DWIDTH 13 0
BBX 12 19 1 -5
BITMAP
0070
0070
1FE0
3FC0
7BC0
F1E0
E0E0
E0E0
E0E0
E0E0
E0E0
7BC0
7FC0
1F00
0000
0000
0600
0E00
0E00
ENDCHAR
STARTCHAR 1EE4
ENCODING 7908
SWIDTH 675 0
DWIDTH 15 0
BBX 13 21 1 -5
BITMAP
E038
E038
E038
E038
E038
E038
E038
E038
E038
E038
E038
F078
7070
7FF0
3FE0
1FC0
0000
0000
0300
0700
0700
ENDCHAR
STARTCHAR 1EE5
ENCODING 7909
SWIDTH 585 0
DWIDTH 13 0
BBX 11 17 1 -5
BITMAP
E0E0
E0E0
E0E0
E0E0
E0E0
E0E0
E0E0
E0E0
F0E0
79E0
7EE0
3EE0
0000
0000
0C00
0E00
0E00
ENDCHAR
STARTCHAR 1EE6
ENCODING 7910
SWIDTH 675 0
DWIDTH 15 0
BBX 13 22 1 0
BITMAP
0700
0F80
0D80
0180
0300
0000
E038
E038
E038
E038
E038
E038
E038
E038
E038
E038
E038
F078
7070
7FF0
3FE0
1FC0
ENDCHAR
STARTCHAR 1EE7
ENCODING 7911
SWIDTH 585 0
DWIDTH 13 0
BBX 11 18 1 0
BITMAP
0E00
1F00
0300
0700
0E00
0000
E0E0
E0E0
E0E0
E0E0
E0E0
E0E0
E0E0
E0E0
F0E0
79E0
7EE0
3EE0
ENDCHAR
STARTCHAR 1EE8
ENCODING 7912
SWIDTH 675 0
DWIDTH 15 0
BBX 15 22 1 0
BITMAP
00E0
01C0
0180
0380
0306
0006
E03E
E03C
E038
E038
E038
E038
E038
E038
E038
E038
E038
F078
7070
7FF0
3FE0
1FC0
ENDCHAR
STARTCHAR 1EE9
ENCODING 7913
SWIDTH 585 0
DWIDTH 13 0
BBX 14 18 1 0
BITMAP
0380
0380
0700
0600
0E1C
001C
E0F8
E0F0
E0E0
E0E0
E0E0
E0E0
E0E0
E0E0
F0E0
79E0
7EE0
3EE0
ENDCHAR
STARTCHAR 1EEA
ENCODING 7914
SWIDTH 675 0
DWIDTH 15 0
BBX 15 22 1 0
BITMAP
1C00
1C00
0E00
0600
0706
0006
E03E
E03C
E038
E038
E038
E038
E038
E038
E038
E038
E038
F078
7070
7FF0
3FE0
1FC0
ENDCHAR
STARTCHAR 1EEB
ENCODING 7915
SWIDTH 585 0
DWIDTH 13 0
BBX 14 18 1 0
BITMAP
7000
3800
1C00
1C00
0E1C
001C
E0F8
E0F0
E0E0
E0E0
E0E0
E0E0
E0E0
E0E0
F0E0
79E0
7EE0
3EE0
ENDCHAR
STARTCHAR 1EEC
ENCODING 7916
SWIDTH 675 0
DWIDTH 15 0
BBX 15 22 1 0
BITMAP
0700
0F80
0D80
0180
0306
0006
E03E
E03C
E038
E038
E038
E038
E038
E038
E038
E038
E038
F078
7070
7FF0
3FE0
1FC0
ENDCHAR
STARTCHAR 1EED
ENCODING 7917
SWIDTH 585 0
DWIDTH 13 0
BBX 14 18 1 0
BITMAP
0E00
1F00
0300
0700
0E1C
001C
E0F8
E0F0
E0E0
E0E0
E0E0
E0E0
E0E0
E0E0
F0E0
79E0
7EE0
3EE0
ENDCHAR
STARTCHAR 1EEE
ENCODING 7918
SWIDTH 675 0
DWIDTH 15 0
BBX 15 20 1 0
BITMAP
1FC0
1FC0
1806
0006
E03E
E03C
E038
E038
E038
E038
E038
E038
E038
E038
E038
F078
7070
7FF0
3FE0
1FC0
ENDCHAR
STARTCHAR 1EEF
ENCODING 7919
SWIDTH 585 0
DWIDTH 13 0
BBX 14 17 1 0
BITMAP
0880
1F80
3780
001C
001C
E0F8
E0F0
E0E0
E0E0
E0E0
E0E0
E0E0
E0E0
F0E0
79E0
7EE0
3EE0
ENDCHAR
STARTCHAR 1EF0
ENCODING 7920
SWIDTH 675 0
DWIDTH 15 0
BBX 15 23 1 -5
BITMAP
0006
0006
E03E
E03C
E038
E038
E038
E038
E038
E038
E038
E038
E038
F078
7070
7FF0
3FE0
1FC0
0000
0000
0300
0700
0700
ENDCHAR
STARTCHAR 1EF1
ENCODING 7921
SWIDTH 585 0
DWIDTH 13 0
BBX 14 19 1 -5
BITMAP
001C
001C
E0F8
E0F0
E0E0
E0E0
E0E0
E0E0
E0E0
E0E0
F0E0
79E0
7EE0
3EE0
0000
0000
0C00
0E00
0E00
ENDCHAR
STARTCHAR 1EF2
ENCODING 7922
SWIDTH 630 0
DWIDTH 14 0
BBX 13 22 1 0
BITMAP
3800
1C00
1C00
0E00
0600
0000
E038
E070
7070
70E0
38E0
39C0
1DC0
1F80
0F80
0F00
0700
0700
0700
0700
0700
0700
ENDCHAR
STARTCHAR 1EF3
ENCODING 7923
SWIDTH 540 0
DWIDTH 12 0
BBX 11 23 1 -5
BITMAP
7000
3800
1800
1C00
0C00
0000
E0E0
E1E0
E1C0
71C0
7180
7380
3B80
3B00
3F00
1E00
1E00
0E00
1C00
1C00
3800
F800
F000
ENDCHAR
STARTCHAR 1EF4
ENCODING 7924
SWIDTH 630 0
DWIDTH 14 0
BBX 13 21 1 -5
BITMAP
E038
E070
7070
70E0
38E0
39C0
1DC0
1F80
0F80
0F00
0700
0700
0700
0700
0700
0700
0000
0000
0600
0700
0700
ENDCHAR
STARTCHAR 1EF5
ENCODING 7925
SWIDTH 540 0
DWIDTH 12 0
BBX 11 17 1 -5
BITMAP
E0E0
E1E0
E1C0
71C0
7180
7380
3B80
3B00
3F00
1E00
1E00
0E00
1C00
1C00
38C0
F9E0
F0C0
ENDCHAR
STARTCHAR 1EF6
ENCODING 7926
SWIDTH 630 0
DWIDTH 14 0
BBX 13 22 1 0
BITMAP
0700
0F80
1980
0380
0600
0000
E038
E070
7070
70E0
38E0
39C0
1DC0
1F80
0F80
0F00
0700
0700
0700
0700
0700
0700
ENDCHAR
STARTCHAR 1EF7
ENCODING 7927
SWIDTH 540 0
DWIDTH 12 0
BBX 11 23 1 -5
BITMAP
1E00
3F00
0300
0600
0C00
0000
E0E0
E1E0
E1C0
71C0
7180
7380
3B80
3B00
3F00
1E00
1E00
0E00
1C00
1C00
3800
F800
F000
ENDCHAR
STARTCHAR 1EF8
ENCODING 7928
SWIDTH 630 0
DWIDTH 14 0
BBX 13 20 1 0
BITMAP
1EC0
1F80
1000
0000
E038
E070
7070
70E0
38E0
39C0
1DC0
1F80
0F80
0F00
0700
0700
0700
0700
0700
0700
ENDCHAR
STARTCHAR 1EF9
ENCODING 7929
SWIDTH 540 0
DWIDTH 12 0
BBX 11 22 1 -5
BITMAP
1180
3F80
2F00
0000
0000
E0E0
E1E0
E1C0
71C0
7180
7380
3B80
3B00
3F00
1E00
1E00
0E00
1C00
1C00
3800
F800
F000
ENDCHAR
STARTCHAR 2013
ENCODING 8211
SWIDTH 630 0
DWIDTH 14 0
BBX 10 2 2 6
BITMAP
FFC0
FFC0
ENDCHAR
STARTCHAR 2014
ENCODING 8212
SWIDTH 720 0
DWIDTH 16 0
BBX 13 2 2 6
BITMAP
FFF8
FFF8
ENDCHAR
STARTCHAR 2018
ENCODING 8216
SWIDTH 270 0
DWIDTH 6 0
BBX 4 6 1 11
BITMAP
60
40
C0
F0
F0
70
ENDCHAR
STARTCHAR 2019
ENCODING 8217
SWIDTH 270 0
DWIDTH 6 0
BBX 3 6 2 11
BITMAP
E0
E0
E0
20
20
C0
ENDCHAR
STARTCHAR 201A
ENCODING 8218
SWIDTH 270 0
DWIDTH 6 0
BBX 3 7 2 -4
BITMAP
E0
E0
E0
20
20
60
C0
ENDCHAR
STARTCHAR 201C
ENCODING 8220
SWIDTH 495 0
DWIDTH 11 0
BBX 9 6 1 11
BITMAP
6180
4200
C200
F380
F380
7380
ENDCHAR
STARTCHAR 201D
ENCODING 8221
SWIDTH 540 0
DWIDTH 12 0
BBX 9 6 2 11
BITMAP
E700
E780
E380
2180
2100
C300
ENDCHAR
STARTCHAR 201E
ENCODING 8222
SWIDTH 540 0
DWIDTH 12 0
BBX 9 7 2 -4
BITMAP
E300
E780
E780
2180
2180
6100
8200
ENDCHAR
STARTCHAR 2020
ENCODING 8224
SWIDTH 585 0
DWIDTH 13 0
BBX 9 21 2 -5
BITMAP
1C00
1C00
1C00
1C00
FF80
FF80
FF80
1C00
1C00
1C00
1C00
1C00
1C00
1C00
1C00
1C00
1C00
1C00
1C00
1C00
1C00
ENDCHAR
STARTCHAR 2021
ENCODING 8225
SWIDTH 585 0
DWIDTH 13 0
BBX 9 21 2 -5
BITMAP
1C00
1C00
1C00
1C00
FF80
FF80
FF80
1C00
1C00
1C00
1C00
1C00
1C00
1C00
1C00
FF80
FF80
FF80
1C00
1C00
1C00
ENDCHAR
STARTCHAR 2022
ENCODING 8226
SWIDTH 450 0
DWIDTH 10 0
BBX 6 5 1 6
BITMAP
30
78
FC
F8
78
ENDCHAR
STARTCHAR 2026
ENCODING 8230
SWIDTH 855 0
DWIDTH 19 0
BBX 15 3 2 0
BITMAP
E38E
E38E
E38E
ENDCHAR
STARTCHAR 2030
ENCODING 8240
SWIDTH 1125 0
DWIDTH 25 0
BBX 24 16 1 0
BITMAP
701800
F83800
CC3000
CC7000
CC6000
F8E000
31C000
01C000
038000
030000
071E1E
063F3E
0E3333
0C3333
1C3F3E
181E1E
ENDCHAR
STARTCHAR 2039
ENCODING 8249
SWIDTH 360 0
DWIDTH 8 0
BBX 7 10 1 2
BITMAP
0E
1C
38
70
E0
E0
70
38
1C
0E
ENDCHAR
STARTCHAR 203A
ENCODING 8250
SWIDTH 360 0
DWIDTH 8 0
BBX 7 10 1 2
BITMAP
E0
70
38
1C
0E
0E
1C
38
70
E0
ENDCHAR
STARTCHAR 2044
ENCODING 8260
SWIDTH 495 0
DWIDTH 11 0
BBX 11 16 0 0
BITMAP
0060
00E0
00C0
01C0
0380
0300
0700
0600
0E00
1C00
1800
3800
3000
7000
E000
C000
ENDCHAR
STARTCHAR 2070
ENCODING 8304
SWIDTH 315 0
DWIDTH 7 0
BBX 6 9 1 8
BITMAP
78
F8
CC
CC
CC
CC
CC
F8
30
ENDCHAR
STARTCHAR 2074
ENCODING 8308
SWIDTH 315 0
DWIDTH 7 0
BBX 6 8 1 9
BITMAP
38
38
78
D8
98
FC
18
18
ENDCHAR
STARTCHAR 2075
ENCODING 8309
SWIDTH 315 0
DWIDTH 7 0
BBX 6 8 1 9
BITMAP
F8
F8
80
F8
DC
0C
D8
F8
ENDCHAR
STARTCHAR 2076
ENCODING 8310
SWIDTH 315 0
DWIDTH 7 0
BBX 6 8 1 9
BITMAP
30
60
40
F8
D8
8C
C8
F8
ENDCHAR
STARTCHAR 2077
ENCODING 8311
SWIDTH 270 0
DWIDTH 6 0
BBX 5 8 1 9
BITMAP
F8
F8
18
18
30
30
60
60
ENDCHAR
STARTCHAR 2078
ENCODING 8312
SWIDTH 315 0
DWIDTH 7 0
BBX 6 9 1 8
BITMAP
78
D8
8C
D8
F8
8C
CC
F8
30
ENDCHAR
STARTCHAR 2079
ENCODING 8313
SWIDTH 315 0
DWIDTH 7 0
BBX 6 8 1 9
BITMAP
70
D8
8C
8C
F8
18
30
30
ENDCHAR
STARTCHAR 2080
ENCODING 8320
SWIDTH 315 0
DWIDTH 7 0
BBX 6 9 1 -6
BITMAP
78
F8
CC
CC
CC
CC
CC
F8
30
ENDCHAR
STARTCHAR 2081
ENCODING 8321
SWIDTH 270 0
DWIDTH 6 0
BBX 5 9 1 -6
BITMAP
60
E0
E0
E0
60
60
60
F8
F8
ENDCHAR
STARTCHAR 2082
ENCODING 8322
SWIDTH 270 0
DWIDTH 6 0
BBX 5 9 1 -6
BITMAP
70
F8
98
18
18
70
C0
F8
F8
ENDCHAR
STARTCHAR 2083
ENCODING 8323
SWIDTH 315 0
DWIDTH 7 0
BBX 6 9 1 -6
BITMAP
78
F8
0C
18
38
0C
CC
F8
70
ENDCHAR
STARTCHAR 2084
ENCODING 8324
SWIDTH 315 0
DWIDTH 7 0
BBX 6 9 1 -6
BITMAP
38
38
78
58
D8
FC
FC
18
18
ENDCHAR
STARTCHAR 2085
ENCODING 8325
SWIDTH 315 0
DWIDTH 7 0
BBX 6 9 1 -6
BITMAP
F8
F8
80
B8
D8
0C
DC
F8
70
ENDCHAR
STARTCHAR 2086
ENCODING 8326
SWIDTH 315 0
DWIDTH 7 0
BBX 6 9 1 -6
BITMAP
30
60
40
F0
D8
8C
88
F8
70
ENDCHAR
STARTCHAR 2087
ENCODING 8327
SWIDTH 270 0
DWIDTH 6 0
BBX 5 9 1 -6
BITMAP
F8
F8
18
18
30
30
60
60
40
ENDCHAR
STARTCHAR 2088
ENCODING 8328
SWIDTH 315 0
DWIDTH 7 0
BBX 6 9 1 -6
BITMAP
70
F8
8C
D8
F8
CC
CC
F8
70
ENDCHAR
STARTCHAR 2089
ENCODING 8329
SWIDTH 315 0
DWIDTH 7 0
BBX 6 9 1 -6
BITMAP
70
F8
8C
8C
F8
78
10
30
60
ENDCHAR
STARTCHAR 20AB
ENCODING 8363
SWIDTH 585 0
DWIDTH 13 0
BBX 12 18 1 0
BITMAP
00E0
07F0
07F0
00E0
7EE0
7FE0
F3E0
E1E0
E0E0
E0E0
E1E0
F1E0
7FE0
7EE0
0000
0000
7FE0
7FE0
ENDCHAR
STARTCHAR 20AC
ENCODING 8364
SWIDTH 675 0
DWIDTH 15 0
BBX 14 15 0 0
BITMAP
07F0
0FF8
1E3C
1C1C
381C
FF80
FF80
3800
FF80
3800
381C
1C1C
1FF8
0FF8
07E0
ENDCHAR
STARTCHAR 2122
ENCODING 8482
SWIDTH 405 0
DWIDTH 9 0
BBX 8 4 0 12
BITMAP
ED
4F
4F
49
ENDCHAR
STARTCHAR 215B
ENCODING 8539
SWIDTH 900 0
DWIDTH 20 0
BBX 19 16 1 0
BITMAP
700600
F00E00
F00C00
B01C00
303800
303000
F87000
F86000
00E380
01C7C0
0186C0
0387C0
0307C0
070660
0E06E0
0C07C0
ENDCHAR
STARTCHAR 215C
ENCODING 8540
SWIDTH 855 0
DWIDTH 19 0
BBX 18 16 1 0
BITMAP
300E00
F80E00
CC1C00
1C1800
383800
0C7000
CC7000
F8E000
00C780
01CFC0
038CC0
0387C0
0707C0
060CC0
0E0FC0
1C0780
ENDCHAR
STARTCHAR 215D
ENCODING 8541
SWIDTH 900 0
DWIDTH 20 0
BBX 18 16 1 0
BITMAP
F80600
F80E00
C01C00
F81C00
D83800
0C3000
F87000
78E000
00E380
01C7C0
0186C0
0387C0
0707C0
070640
0E06C0
0C07C0
ENDCHAR
STARTCHAR 215E
ENCODING 8542
SWIDTH 900 0
DWIDTH 20 0
BBX 19 16 1 0
BITMAP
F80E00
F80E00
181C00
181800
303800
307000
707000
60E000
00C380
01C7C0
0386C0
0387C0
0707C0
060660
0E06E0
1C07C0
ENDCHAR
STARTCHAR 2212
ENCODING 8722
SWIDTH 585 0
DWIDTH 13 0
BBX 9 2 2 6
BITMAP
FF80
FF80
ENDCHAR
STARTCHAR 2215
ENCODING 8725
SWIDTH 495 0
DWIDTH 11 0
BBX 10 16 1 0
BITMAP
01C0
01C0
0380
0380
0700
0700
0E00
0E00
1C00
1C00
3800
3800
7000
7000
E000
E000
ENDCHAR
STARTCHAR 2248
ENCODING 8776
SWIDTH 585 0
DWIDTH 13 0
BBX 9 8 2 3
BITMAP
3180
7F80
CF00
0000
0000
3180
7F80
CF00
ENDCHAR
STARTCHAR 2260
ENCODING 8800
SWIDTH 720 0
DWIDTH 16 0
BBX 10 13 3 0
BITMAP
01C0
0180
0380
FFC0
FFC0
0E00
0C00
FFC0
FFC0
FFC0
7000
7000
E000
ENDCHAR
STARTCHAR 2264
ENCODING 8804
SWIDTH 585 0
DWIDTH 13 0
BBX 10 15 2 0
BITMAP
0080
0180
0780
1F00
7C00
7000
7C00
1F00
0780
0180
0080
0000
0000
FFC0
FFC0
ENDCHAR
STARTCHAR 2265
ENCODING 8805
SWIDTH 630 0
DWIDTH 14 0
BBX 10 15 2 0
BITMAP
4000
7000
7C00
3E00
0F80
0380
0F80
3F00
7C00
7000
4000
0000
0000
FFC0
FFC0
ENDCHAR
ENDFONT
